<?xml version="1.0" encoding="UTF-8"?>
<!DOCTYPE svg PUBLIC "-//W3C//DTD SVG 1.1//EN" "http://www.w3.org/Graphics/SVG/1.1/DTD/svg11.dtd">
<!-- Creator: CorelDRAW X6 -->
<svg xmlns="http://www.w3.org/2000/svg" xml:space="preserve" width="200mm" height="242.808mm" version="1.1" style="shape-rendering:geometricPrecision; text-rendering:geometricPrecision; image-rendering:optimizeQuality; fill-rule:evenodd; clip-rule:evenodd"
viewBox="0 0 20000 24281"
 xmlns:xlink="http://www.w3.org/1999/xlink">
 <defs>
  <style type="text/css">
   <![CDATA[
    .str0 {stroke:#2B2A29;stroke-width:7.62}
    .fil2 {fill:#009846}
    .fil7 {fill:#AE4A84}
    .fil6 {fill:#E31E24}
    .fil8 {fill:#EF7F1A}
    .fil11 {fill:#FEFEFE}
    .fil5 {fill:#FFED00}
    .fil3 {fill:black}
    .fil9 {fill:#0D7B61}
    .fil4 {fill:#B93463}
    .fil0 {fill:#FFDD00}
    .fil10 {fill:#2B2A29;fill-rule:nonzero}
    .fil1 {fill:black;fill-rule:nonzero}
   ]]>
  </style>
 </defs>
 <g id="Слой_x0020_1">
  <metadata id="CorelCorpID_0Corel-Layer"/>
  <path class="fil0" d="M19962 38c0,6760 -5,13520 0,20280 0,1385 -999,2247 -2289,2247l-86 0 -5945 0c-1082,0 -1537,1301 -1642,1614 -105,-313 -597,-1614 -1642,-1614l-5945 0 -86 0c-1290,0 -2289,-861 -2289,-2247 5,-6760 0,-13520 0,-20280l19924 0z"/>
  <path class="fil1" d="M20000 0l0 38c0,2253 -1,4507 -1,6760 -1,4507 -2,9013 1,13520 0,688 -243,1249 -645,1643 -420,412 -1013,641 -1682,641l-6031 0c-526,0 -901,318 -1157,674 -259,360 -398,759 -450,914l-37 91 -34 -91c-52,-155 -200,-554 -463,-914 -261,-356 -636,-674 -1143,-674l-6031 0c-670,0 -1262,-229 -1682,-641 -402,-394 -645,-955 -645,-1643 3,-4507 2,-9013 1,-13520 -1,-2253 -1,-4507 -1,-6760l0 -38 20000 0zm-76 76l-19849 0c0,2241 1,4481 1,6722 1,4507 2,9013 -1,13520 0,666 234,1209 622,1590 406,398 980,619 1629,619l6031 0c538,0 932,333 1204,705 223,305 365,637 438,832 70,-195 205,-527 424,-832 268,-373 662,-705 1218,-705l6031 0c650,0 1224,-221 1629,-619 388,-380 622,-923 622,-1590 -3,-4507 -2,-9013 -1,-13520 1,-2241 1,-4481 1,-6722z"/>
  <path class="fil2" d="M19331 595l-50 19401c0,1307 -716,1935 -1928,1935l-193 0 -5722 0c-509,0 -1257,220 -1463,834 -206,-614 -955,-834 -1463,-834l-5722 0 -193 0c-1212,0 -1928,-628 -1928,-1935l0 -19401 18663 0z"/>
  <path class="fil1" d="M19369 557l0 38 -50 19401c0,652 -177,1139 -503,1467 -338,340 -836,506 -1463,506l-5915 0c-281,0 -636,68 -928,235 -225,128 -412,315 -499,573l-35 94 -36 -94c-87,-259 -274,-445 -499,-573 -293,-167 -648,-235 -928,-235l-5915 0c-627,0 -1125,-166 -1463,-506 -326,-328 -503,-815 -503,-1467l0 -19439 18739 0zm-76 76l-18587 0 0 19363c0,631 169,1101 481,1414 323,325 803,484 1409,484l5915 0c291,0 661,71 966,245 213,121 394,292 498,523 104,-231 285,-402 498,-523 305,-174 674,-245 966,-245l5915 0c607,0 1086,-159 1409,-484 312,-313 481,-782 481,-1414l50 -19363z"/>
  <g id="_602863784">
   <path class="fil3" d="M4719 18555c-374,97 -573,6 -605,-213 -335,135 -522,39 -560,-258 -329,6 -483,-97 -399,-290 -380,-116 -496,-296 -303,-567 -219,-90 -329,-580 -155,-876 -187,-361 -110,-683 225,-915 -52,-728 116,-760 522,-889 -77,-303 232,-535 657,-618 -39,-399 309,-663 837,-728 52,-264 316,-509 760,-618 155,-329 425,-502 773,-535 161,-515 490,-548 831,-502 32,-206 290,-612 734,-535 129,-496 277,-702 805,-882 19,-412 206,-702 560,-831 -84,-432 19,-612 348,-734 -155,-283 -64,-741 180,-1140 1965,889 4599,1926 6718,1791 200,528 71,1063 -399,1462 64,425 -39,902 -689,1089 -6,354 -367,612 -689,670 -45,412 -277,605 -850,631 -167,329 -567,528 -1005,470 -303,309 -644,393 -1031,219 -367,258 -702,309 -966,110 -406,283 -792,361 -1147,180 -251,309 -618,406 -1063,225 -277,316 -618,425 -986,264 -283,361 -683,483 -1095,393 -290,116 -374,380 -773,393 -129,71 -399,225 -509,303 0,155 -103,251 -303,238 -84,71 -148,245 -200,309 -52,64 -148,77 -180,142 -58,116 -103,232 -110,341 -6,103 13,213 58,303 6,-219 58,-322 316,-374 77,-238 309,-354 386,-142 122,-283 393,-329 560,-84 238,-155 496,64 425,329 393,19 374,174 238,541 167,116 193,599 26,676 52,206 -283,483 -567,367 -71,206 -245,329 -618,219 -193,161 -444,174 -760,64z"/>
   <path class="fil0 str0" d="M13683 8974c-116,84 -225,354 -477,515 341,341 657,676 1069,1037 -64,-502 32,-786 129,-857 0,0 -13,19 -19,-58 -696,386 -786,335 -309,-167 -13,-6 -45,-39 -58,-45 -206,225 -290,367 -316,-187 -39,-19 32,-206 -19,-238zm-651 6c-58,52 -84,45 -264,187 303,380 232,-13 264,-187zm-3053 -580c1481,522 2957,2312 3858,3098 593,425 1166,-303 438,-702 -966,-715 -1739,-2229 -4077,-3034 -412,-142 -605,219 -219,638zm-386 792c1552,676 1758,1494 3536,3015 496,535 1237,-148 580,-644 -444,-251 -2048,-2293 -3633,-2847 -432,-155 -515,264 -483,477zm-496 863c1868,882 915,876 3156,2628 496,535 1501,58 812,-348 -1333,-992 -1778,-2003 -3427,-2789 -386,-180 -541,271 -541,509zm-754 850c1314,651 1076,1237 2473,2248 496,535 1591,-232 902,-638 -1333,-1050 -1585,-1919 -2660,-2177 -374,-84 -715,329 -715,567zm-928 734c1430,535 998,502 2132,1694 496,535 1533,64 844,-341 -1333,-1050 -1153,-1572 -2229,-1823 -367,-84 -747,232 -747,470zm-760 560c1082,328 1114,470 1842,1430 496,535 1089,155 721,-399 -599,-844 -741,-1082 -1997,-1501 -329,-110 -567,232 -567,470zm-734 496c702,238 998,238 1610,1134 296,451 1127,122 728,-283 -541,-728 -779,-966 -1713,-1237 -329,-97 -625,148 -625,386zm-818 528c438,174 1005,444 1436,1043 496,535 1185,-45 818,-399 -541,-728 -818,-908 -1481,-1037 -412,-77 -773,155 -773,393zm-812 651c464,84 857,322 1205,805 496,535 1269,-13 902,-367 -419,-580 -799,-702 -1424,-921 -399,-142 -676,174 -683,483zm-702 670c438,174 928,438 1275,747 322,271 908,-97 541,-451 -419,-580 -715,-767 -1217,-747 -515,-129 -631,200 -599,451zm-496 799c438,174 721,90 1069,573 670,361 940,-71 573,-425 -419,-580 -779,-676 -1301,-779 -187,-39 -522,361 -341,631zm-258 882c438,174 638,116 1185,367 406,213 618,-219 367,-367 -502,-457 -805,-612 -1301,-657 -129,-13 -432,386 -251,657zm97 928c290,174 831,-258 1378,-6 206,71 187,-167 19,-361 -490,-219 -812,-329 -1456,-393 -277,264 -238,490 58,760zm174 567c335,32 889,-90 1378,-277 103,-71 103,-116 19,-206 -715,-167 -915,58 -1559,-6 -148,129 -161,432 161,490zm444 348c155,-19 960,-277 1101,-657 -477,200 -837,348 -1411,367 -148,129 -13,232 309,290zm573 206c129,-13 721,-419 651,-805 -374,329 -548,541 -1121,657 -71,129 122,367 470,148zm593 180c129,-13 329,-618 161,-953 -116,470 -238,605 -651,837 -71,129 142,335 490,116zm721 -6c-13,-283 -232,-696 -438,-934 13,464 45,721 -122,921 -71,129 187,283 560,13zm515 -271c-122,-316 -541,-625 -921,-760 322,502 483,721 515,1011 135,122 554,-26 406,-251zm528 -296c-122,-316 -863,-412 -1269,-451 560,303 696,444 857,721 193,167 560,-45 412,-271zm167 -509c-200,-348 -1192,-84 -1340,6 638,97 1018,97 1179,374 193,167 309,-155 161,-380zm-58 -548c-200,-348 -1192,419 -1340,509 580,-225 831,-245 1185,-174 161,-13 303,-110 155,-335zm-303 -374c-200,-348 -908,760 -1056,850 425,-290 651,-483 960,-580 161,-13 245,-45 97,-271zm-573 -200c-316,-97 -490,986 -638,1076 425,-290 560,-696 812,-850 32,-161 -58,-193 -174,-225zm-502 155c-245,116 -148,567 -161,889 322,-644 406,-1005 161,-889zm-341 277c-213,155 -148,438 122,644 -26,-535 90,-799 -122,-644z"/>
   <path class="fil3 str0" d="M10134 8288c-39,97 26,193 77,213 -52,200 32,354 180,386 -71,58 142,548 374,251 -167,586 580,361 393,26 348,155 412,-174 399,-316 122,-103 148,-290 258,-380 58,-52 213,-77 380,-155 -135,135 -374,509 -238,618 200,-142 522,-174 631,-206 -84,155 -219,425 -335,625 161,58 638,-341 850,-477 6,97 -71,541 -64,638 180,19 502,-477 812,-792 -90,232 -142,599 -26,844 148,-122 361,-380 509,-496 6,110 -348,560 -502,767 386,-135 593,-213 760,-451 -502,734 -122,1256 -412,1739 393,-193 792,-193 1147,-393 -77,193 -110,670 -213,1089 799,-110 1101,-541 1031,-1101 322,77 193,721 0,992 573,-39 522,-1147 702,-161 354,-367 535,-496 290,-1147 167,97 251,309 374,721 245,-251 367,-786 13,-1192 0,-19 0,-39 0,-58 180,167 541,103 573,921 721,-721 663,-2171 -45,-2577 309,13 341,6 631,419 206,-432 58,-734 -560,-799 232,52 528,-52 767,0 -167,-296 -535,-406 -818,-477 110,-110 393,-26 760,-58 -290,-225 -902,-651 -1462,-470 -84,-129 354,-296 580,-348 -187,-155 -696,-103 -760,-13 58,-155 567,-535 805,-496 -232,-193 -799,64 -979,129 64,-77 129,-155 193,-232 -116,-84 -232,-84 -348,0 77,-77 238,-522 316,-599 -528,-52 -773,-110 -998,399 -193,-251 193,-844 335,-940 -142,-103 -1031,13 -1166,425 -58,-180 0,-425 64,-605 -251,64 -509,122 -586,225 52,-142 -84,-148 -32,-354 -103,-64 -432,71 -535,167 32,-155 64,-477 97,-631 -522,-32 -876,309 -1082,612 97,-129 -290,-696 -361,-844 -161,-39 -367,490 -522,657 -52,-161 -187,-406 -238,-567 -129,64 -193,438 -322,502 -45,-64 -374,-522 -419,-586 -64,26 -129,84 -174,161 -386,-367 -1430,-64 -1353,329 -309,-193 -818,-296 -1095,-90 303,71 509,309 457,457 -110,-26 -225,-52 -341,-77 -180,-19 -663,283 -792,367 316,-84 767,-64 876,84 -528,45 -773,721 -670,1043 200,-213 444,-367 709,-470 -335,309 -593,593 -477,889 122,-142 419,-180 573,-180 -341,258 -490,554 -438,863 129,-129 560,-213 728,-290 -425,502 -399,406 -425,870 187,-386 818,-329 953,-264 -303,103 -689,522 -464,676 -13,-45 174,-161 399,-271 135,77 -32,322 258,457z"/>
   <path class="fil4 str0" d="M10498 7112c161,0 296,129 296,283 0,155 -135,283 -296,283 -161,0 -296,-129 -296,-283 0,-155 135,-283 296,-283zm573 -251c174,0 322,142 322,316 0,174 -148,316 -322,316 -180,0 -329,-142 -329,-316 0,-174 148,-316 329,-316zm-457 -232c129,0 232,97 232,219 0,116 -103,213 -232,213 -129,0 -232,-97 -232,-213 0,-122 103,-219 232,-219zm483 -200c116,0 213,97 213,213 0,110 -97,206 -213,206 -122,0 -219,-97 -219,-206 0,-116 97,-213 219,-213zm-193 -515c142,0 258,103 258,232 0,129 -116,232 -258,232 -142,0 -258,-103 -258,-232 64,-122 122,-225 258,-232zm612 251c129,0 238,90 238,206 0,116 -110,206 -238,206 -129,0 -238,-90 -238,-206 0,-116 110,-206 238,-206zm103 483c122,0 219,97 219,225 0,122 -97,219 -219,219 -129,0 -225,-97 -225,-219 0,-129 97,-225 225,-225zm103 515c135,0 251,110 251,251 0,135 -116,245 -251,245 -135,0 -251,-110 -251,-245 0,-142 116,-251 251,-251zm-296 380c135,0 245,116 245,258 0,142 -110,258 -245,258 -71,0 -135,-32 -180,-77 -45,-45 84,-77 84,-213 6,-148 -116,-142 -52,-187 45,-32 97,-39 148,-39zm-419 -32c148,0 271,116 271,258 0,103 -71,193 -167,232 -32,13 -71,-77 -103,-77 -97,0 -187,58 -232,-13 -32,-39 -45,-90 -45,-142 0,-142 122,-258 277,-258zm-515 167c129,0 238,103 238,225 0,122 -135,161 -264,161 -77,-32 -19,-174 -200,-206 0,-122 90,-180 225,-180zm412 264c148,0 271,122 271,271 0,142 -122,264 -271,264 -155,0 -251,-110 -251,-251 0,-148 97,-283 251,-283zm618 167c148,0 264,103 264,232 0,129 -116,232 -264,232 -148,0 -264,-103 -264,-232 0,-129 116,-232 264,-232zm438 -464c142,0 258,97 258,219 0,116 -116,213 -258,213 -142,0 -258,-97 -258,-213 0,-122 116,-219 258,-219zm206 -850c148,0 271,110 271,251 0,135 -122,245 -271,245 -155,0 -277,-110 -277,-245 0,-142 122,-251 277,-251zm116 483c129,0 232,90 232,200 0,110 -103,200 -232,200 -129,0 -232,-90 -232,-200 0,-110 103,-200 232,-200zm-2081 -515c116,0 213,84 213,193 0,103 -97,187 -213,187 -122,0 -219,-84 -219,-187 0,-110 97,-193 219,-193zm1804 -290c110,0 232,52 232,142 0,90 -97,161 -206,161 -116,0 -213,-71 -213,-161 0,-90 77,-142 187,-142zm-1559 -747c148,0 264,110 264,245 0,129 -116,238 -264,238 -148,0 -264,-110 -264,-238 0,-135 116,-245 264,-245zm818 -32c142,0 258,90 258,200 0,110 -116,200 -258,200 -90,-39 -110,-167 -258,-200 0,-110 116,-200 258,-200zm-483 -251c116,0 213,90 213,206 0,110 -97,200 -213,200 -122,0 -219,-90 -219,-200 0,-116 97,-206 219,-206zm412 3002c103,0 193,84 193,193 0,103 -90,187 -193,187 -110,0 -200,-84 -200,-187 0,-110 90,-193 200,-193zm-1114 -953c122,0 219,90 219,200 0,110 -97,200 -219,200 -129,0 -225,-90 -225,-200 0,-110 97,-200 225,-200zm-39 -329c97,0 174,58 174,135 0,71 -77,129 -174,129 -97,0 -174,-58 -174,-129 0,-77 77,-135 174,-135zm142 696c97,0 180,77 180,180 0,97 -84,174 -180,174 -97,0 -180,-77 -180,-174 0,-103 84,-180 180,-180zm232 219c129,0 200,84 200,200 0,110 -26,155 -155,155 -129,0 -283,-58 -283,-167 135,-26 245,-103 238,-187zm399 380c103,0 193,84 193,193 0,110 -90,193 -193,193 -110,0 -200,-84 -200,-193 0,-110 90,-193 200,-193zm-367 0c103,0 187,84 187,187 0,97 -84,180 -187,180 -110,0 -193,-84 -193,-180 0,-103 84,-187 193,-187zm161 316c97,0 174,84 174,187 0,97 -77,180 -174,180 -97,0 -174,-84 -174,-180 0,-103 77,-187 174,-187zm380 0c39,26 174,64 174,161 0,71 -39,148 -103,187 -19,6 -45,19 -71,19 -45,0 -103,-19 -142,-52 -52,-32 -71,-97 -64,-129 13,-71 122,-97 206,-187zm367 32c64,-71 155,45 155,142 0,97 -77,180 -174,180 -97,0 -180,-129 -174,-180 6,-52 129,-71 193,-142zm148 -245c58,0 103,52 103,116 0,64 -45,116 -103,116 -64,0 -110,-52 -110,-116 0,-64 45,-116 110,-116zm-535 612c90,0 155,-6 155,90 0,97 -77,180 -167,180 -97,0 -174,-84 -174,-180 0,-97 97,-90 187,-90zm-625 -3781c97,0 174,71 174,167 0,90 -77,161 -174,161 -103,0 -180,-71 -180,-161 0,-97 77,-167 180,-167zm-283 -283c97,0 180,77 180,174 0,90 -84,167 -180,167 -103,0 -187,-77 -187,-167 0,-97 84,-174 187,-174zm0 399c90,0 77,52 77,135 0,84 225,71 -77,161 -90,0 -167,-64 -167,-148 0,-84 77,-148 167,-148zm548 -219c58,0 110,39 110,90 0,52 -52,90 -110,90 -58,0 -110,-39 -110,-90 0,-52 52,-90 110,-90zm367 -13c64,0 122,52 122,110 0,58 -58,110 -122,110 -64,0 -122,-52 -122,-110 0,-58 58,-110 122,-110zm142 232c52,0 97,45 97,103 0,52 -45,97 -97,97 -58,0 -103,-45 -103,-97 0,-58 45,-103 103,-103z"/>
   <path class="fil5 str0" d="M12692 6290c155,0 309,39 432,116 0,19 0,52 13,71 39,77 -329,296 -399,496 -77,-26 663,-206 689,-161 32,77 52,-19 6,45 -116,155 -432,560 -148,586 -135,167 -374,251 -593,251 -155,0 -174,13 -206,-19 142,-129 135,-290 -71,-438 103,-77 135,-470 -180,-496 77,-71 84,-193 -39,-296 129,-97 309,-155 496,-155z"/>
   <path class="fil6 str0" d="M12323 5362c26,0 71,-142 90,-142 393,32 683,316 683,651 0,161 -45,303 -161,419 -90,-64 -483,-167 -818,135 -71,-71 -71,-26 -180,-6 -39,-13 -90,-45 -110,-58 -19,-6 13,-84 -52,-129 -64,-58 -122,-52 -148,-110 -26,-71 -64,-161 -64,-251 0,-52 13,-110 26,-167 213,-32 354,-180 374,-406 77,-39 174,-64 277,-77 26,0 52,142 84,142z"/>
   <path class="fil6 str0" d="M10709 3800c451,0 824,335 824,747 0,116 -39,225 -84,322 -193,45 -329,167 -354,329 -116,58 -251,97 -386,97 -457,0 -831,-335 -831,-747 0,-322 232,-593 548,-702 193,335 283,316 283,-45z"/>
   <path class="fil5 str0" d="M11525 4930c167,-52 155,554 58,631 167,52 135,-593 103,-599 135,64 219,200 219,335 0,200 -174,367 -380,367 -213,0 -386,-167 -386,-367 0,-200 174,-367 386,-367z"/>
   <ellipse class="fil5 str0" cx="13786" cy="5555" rx="399" ry="335"/>
   <path class="fil6 str0" d="M14445 6925c39,193 -13,296 -13,631 0,290 52,354 206,580 -52,6 -142,13 -193,13 -419,0 -760,-277 -760,-612 0,-335 341,-612 760,-612z"/>
   <path class="fil7 str0" d="M13580 7366c19,0 84,-19 97,-19 -64,71 -90,412 97,528 -58,45 -122,71 -193,71 -174,0 -316,-129 -316,-290 0,-161 142,-290 316,-290z"/>
   <path class="fil8 str0" d="M14269 8175c13,39 26,77 26,116 0,161 -142,296 -322,296 -180,0 -322,-135 -322,-296 0,-135 58,-258 213,-290 77,71 258,155 406,174z"/>
   <path class="fil7 str0" d="M15025 5293c206,0 380,161 380,361 0,200 -174,361 -380,361 -19,0 -32,-6 -39,-6 -6,0 -26,-6 -45,-13 -32,-90 -148,-167 -271,-206 -19,-39 -32,-90 -32,-135 0,-200 174,-361 386,-361z"/>
   <path class="fil6 str0" d="M15931 5927c483,0 876,290 876,689 0,45 -64,58 -71,103 -715,-490 -1359,26 -1063,625 -361,-97 -625,-367 -625,-689 0,-399 399,-728 882,-728z"/>
   <path class="fil8 str0" d="M16234 6574c135,-19 155,844 39,876 180,19 167,-857 71,-870 155,26 296,103 380,213 -26,64 -71,97 -71,200 0,110 45,277 58,399 -110,129 -283,213 -477,213 -329,0 -599,-232 -599,-515 0,-283 271,-515 599,-515z"/>
   <path class="fil5 str0" d="M17020 7027c13,-6 -167,-251 -148,-258 213,-103 309,161 696,232 399,71 612,515 174,934 -13,13 -232,-187 -155,-52 0,0 84,116 71,129 -490,367 -973,-155 -908,-451 64,-283 -142,-548 39,-728 6,-6 219,200 232,193z"/>
   <path class="fil5 str0" d="M14644 6960c11,-7 -8,-151 -2,-154 167,-69 272,121 494,234 181,219 316,295 581,368 31,78 80,86 157,152 78,169 29,376 -221,554 119,-226 -321,-255 -215,1 45,-138 233,-182 113,66 -666,379 -1141,-186 -1055,-718 81,-478 -65,-511 52,-602 11,-7 68,115 96,99z"/>
   <path class="fil6 str0" d="M16584 7880c71,0 148,6 206,19 84,161 251,271 490,290 90,122 142,258 142,393 0,361 -329,657 -754,696 -32,0 -129,-45 -155,-45 -71,0 -71,39 -135,26 -361,-77 -631,-354 -631,-676 0,-386 374,-702 837,-702z"/>
   <path class="fil4 str0" d="M15582 8223c155,213 -90,245 -206,245 -58,0 -110,-84 -142,-116 148,-19 232,-71 348,-129zm-39 271c97,0 180,84 180,187 0,97 -116,225 -180,180 -64,-45 -148,-135 -187,-180 -39,-45 84,-187 187,-187zm-444 -84c122,0 225,77 225,174 0,97 -103,174 -225,174 -122,0 -225,-77 -225,-174 0,-97 103,-174 225,-174zm264 329c64,71 148,142 187,180 39,39 -84,45 -187,174 -238,-174 -225,-238 -193,-174 -26,-32 129,-251 193,-180zm-283 193c71,32 161,110 193,180 0,97 -84,174 -193,174 -110,0 -193,-77 -193,-174 0,-103 84,-180 193,-180zm515 52c90,0 167,71 167,155 0,77 -77,148 -167,148 -90,0 -167,-71 -167,-148 0,-84 77,-155 167,-155zm374 122c64,58 238,148 322,174 0,129 -142,264 -258,264 -122,0 -219,-103 -219,-232 0,-129 39,-206 155,-206zm-374 180c110,0 200,77 200,174 0,97 -90,174 -200,174 -110,0 -200,-77 -200,-174 0,-97 90,-174 200,-174zm-399 32c97,0 180,71 180,161 0,84 -84,155 -180,155 -103,0 -187,-71 -187,-155 0,-90 84,-161 187,-161zm728 225c110,0 200,77 200,167 0,90 -110,129 -219,129 -110,0 -110,-19 -110,-110 0,-90 -77,-180 129,-187zm580 -277c110,0 200,77 200,174 0,97 -90,174 -200,174 -135,-13 -200,-116 -206,-174 0,-97 90,-174 206,-174zm-200 296c97,0 187,58 187,167 0,110 -84,200 -180,200 -103,0 -187,-90 -187,-200 0,-110 77,-167 180,-167zm-161 380c110,0 316,0 316,116 0,110 26,135 -84,264 19,-187 -19,-200 -77,-277 0,-116 -271,-103 -155,-103zm-264 -64c97,0 174,39 174,135 0,90 -77,161 -174,161 -97,0 -174,-71 -174,-161 0,-97 77,-135 174,-135zm-303 32c110,0 193,-142 193,-52 0,84 -110,122 -219,122 -110,0 -193,-71 -193,-155 -26,-90 58,77 219,84zm-393 -245c97,0 174,71 174,161 0,84 -71,116 -167,116 -97,0 -180,-32 -180,-116 0,-90 77,-161 174,-161zm309 303c110,0 200,77 200,174 0,97 -84,110 -193,110 -116,0 -213,-13 -213,-110 0,-97 90,-174 206,-174zm367 245c97,0 180,77 180,174 0,97 -84,174 -180,174 -103,0 32,-45 32,-142 0,-97 -296,-213 -32,-206zm-219 52c103,0 187,77 187,174 0,97 -84,174 -187,174 -103,0 -193,-77 -193,-174 0,-97 84,-174 193,-174zm522 -245c103,0 187,90 187,200 0,110 -84,200 -187,200 -110,0 -193,-90 -193,-200 0,-110 84,-200 193,-200zm-599 -348c142,-52 200,-26 200,58 0,84 -84,148 -193,148 -110,0 -193,-64 -193,-148 0,-84 19,-135 187,-58zm-296 277c180,-19 -13,77 -13,167 0,90 122,167 13,167 -116,0 -206,-77 -206,-167 0,-90 90,-167 206,-167zm122 316c142,6 26,71 26,167 39,97 64,180 -26,180 -90,0 -167,-77 -167,-174 0,-97 71,-174 167,-174zm251 380c97,0 174,-71 174,13 0,84 -77,148 -174,148 -97,0 -174,-64 -174,-148 0,-84 77,-13 174,-13z"/>
   <path class="fil9 str0" d="M11302 3921c26,-26 58,-58 90,-90 142,187 283,374 432,567 122,-97 219,-258 316,-483 77,187 161,374 245,567 161,-232 329,-464 496,-689 374,515 438,940 0,1533 -97,-19 -206,-64 -316,-97 135,0 361,-560 277,-908 77,84 -290,960 -374,889 -129,-19 -271,-32 -412,6 110,-77 155,-850 52,-792 71,26 -45,850 -135,824 -84,-206 -232,-335 -406,-393 135,-374 -6,-676 -264,-934zm-1662 1546c142,0 245,64 251,206 0,32 -399,-6 -631,174 26,-32 515,-110 709,6 0,45 13,90 26,129 13,39 52,90 77,129 -26,-129 -863,258 -773,444 26,-161 992,-490 1043,-277 110,58 200,135 283,135 271,380 -1050,142 -1816,535 -225,-155 470,-593 528,-850 -245,-26 -490,-6 -696,97 271,-631 876,-921 998,-728zm-367 -548c-271,64 -799,380 -895,934 329,-399 612,-386 876,-438 180,-135 367,-84 554,-213 -290,-45 -676,-116 -850,77 180,-225 754,-283 940,-283 84,-142 -251,-361 -464,-348 -322,-13 -580,-122 -889,84 251,52 483,142 728,187zm560 1862c-116,6 -232,19 -348,32 -219,187 -425,464 -438,702 264,-161 483,-232 734,-161 -77,-71 45,-180 155,-277 -52,-161 -245,-58 -451,103 97,-129 213,-251 412,-232 142,-219 116,-271 -64,-167zm-934 -2667c380,-103 670,-26 973,180 -19,90 -39,187 -52,283 -45,-135 -264,-329 -419,-348 167,84 399,438 432,528 -116,-58 -245,-193 -541,-174 -6,-193 -103,-335 -393,-470zm7858 5217c71,245 -6,567 -26,779 129,0 303,-58 432,-58 -19,77 -6,180 -26,264 200,187 348,451 386,702 354,-432 -142,-1108 -84,-1217 335,-32 657,251 715,818 496,-870 412,-1952 -187,-2403 -213,-6 -367,-45 -573,-58 39,148 77,290 116,432 483,58 812,651 689,1378 -52,-812 -509,-1269 -728,-1185 -64,116 -71,110 -129,219 110,110 200,238 213,432 -64,-174 -142,-271 -245,-316 -77,26 -155,52 -225,71 77,84 245,219 271,432 -52,-167 -245,-296 -341,-341 -90,19 -174,39 -258,52zm-1404 -4122c0,52 0,110 -6,167 77,110 122,238 110,386 -84,-148 135,-721 432,-754 -219,129 -483,792 -316,882 187,-6 386,-13 573,-13 58,32 122,26 180,52 26,-110 122,-399 329,-432 -167,142 -348,464 -238,477 110,64 232,193 335,245 71,-39 142,-71 219,-103 52,-84 103,-161 155,-238 -103,-64 -238,-26 -322,32 64,-219 200,-386 271,-599 -760,-180 -741,148 -895,406 -277,-303 -77,-625 200,-973 -380,0 -760,52 -1024,464zm-1050 -1198c-32,193 -71,386 -110,586 -155,206 -167,432 -110,651 -135,-77 -303,-97 -425,-71 -26,0 180,-573 174,-573 -26,0 -283,618 -290,625 -174,97 -271,322 -148,580 -167,103 -309,161 -264,-39 -6,-193 -90,-329 -206,-419 271,-219 251,-457 341,-702 329,-374 676,-625 1037,-638zm-155 1810c19,19 605,-1198 283,-425 19,19 -129,354 -110,374 103,-155 167,13 271,19 -52,-135 -19,-271 103,-419 0,-142 -6,-341 0,-490 -116,-45 -238,32 -490,444 45,174 26,348 -58,496zm-193 3910c309,-135 599,-309 734,-618 -6,116 -90,425 -232,683 -180,329 -39,812 -180,1185 19,0 908,-206 1043,-335 -174,-116 -174,-251 -148,-329 -52,-19 -97,-45 -129,-77 -225,361 -470,605 -490,554 45,26 309,-374 451,-631 0,-277 77,-155 77,-187 -238,-116 -45,-348 -39,-348 -103,-77 -71,-213 -71,-322 -110,-32 -374,-374 135,-432 0,-84 -238,-116 -238,-193 -84,39 -32,-271 -110,-232 -180,84 -174,490 -348,567 -52,232 -219,464 -457,715zm1417 1050c-58,316 -116,638 -167,960 509,-90 863,-361 895,-986 -110,13 -213,26 -316,39 64,161 -39,419 -187,457 110,-64 167,-329 90,-425 -110,-19 -213,-32 -316,-45zm876 -174c251,354 148,670 26,1018 64,-71 258,-329 451,-599 52,116 103,238 161,361 425,-361 296,-657 161,-1243 -110,19 -167,19 -277,39 -13,148 -19,303 -26,457 -19,-142 -39,-283 -58,-419 -110,122 -329,258 -438,386zm-2628 -3311c-129,26 -258,52 -386,84 19,-271 225,-509 477,-580 84,-148 -438,-39 -863,90 438,-393 824,-850 1539,-399 -26,-245 -225,-412 -599,-502 399,-245 786,-296 1205,52 129,-97 155,-200 77,-335 174,-97 303,32 419,200 -232,129 -477,303 -560,522 64,-129 -509,-573 -573,-419 110,-97 612,438 554,502 -6,97 13,219 77,348 -174,-135 -329,-232 -490,-39 187,-155 -779,-438 -934,-303 142,-64 1166,225 831,341 -380,6 -644,161 -773,438zm122 -1353c-135,32 -116,26 -32,45 116,26 361,90 580,329 0,32 -6,26 -13,58 -386,-213 -728,-174 -1063,129 -45,-64 -71,-142 -71,-219 0,-193 71,-367 283,-438 64,-19 84,71 316,97zm1050 -1089c-13,0 -32,0 -52,6 0,129 13,258 19,393 0,32 238,-348 238,-322 19,-13 -200,380 -174,367 142,-84 309,-77 470,39 -103,-258 -90,-490 26,-702 -167,-6 -341,58 -528,219zm2473 1965c26,-174 251,-277 567,-354 -167,-58 -399,-52 -676,19 -90,-71 309,-477 676,-541 -586,0 -747,213 -1063,296 13,39 19,77 26,110 97,-19 432,-213 522,-238 -84,39 -406,277 -496,309 19,97 32,167 45,258 45,6 90,13 135,13 77,-97 290,-187 444,-180 -103,13 -290,103 -399,200 77,39 148,77 219,110zm502 1179c-110,97 -77,19 -193,122 354,64 515,-19 773,71 135,84 238,193 322,348 71,-225 90,-457 -213,-573 -142,-45 -283,-122 -419,-161 245,-19 490,-6 741,-32 -193,-174 -425,-316 -721,-386 -19,64 -39,122 -52,180 129,-52 432,52 522,142 -116,-64 -432,-129 -535,-77 -32,129 -200,303 -225,367zm-5385 58c26,-110 554,-322 696,-367 -348,45 -657,71 -799,71 6,135 39,348 -393,361 -129,77 -45,135 -58,251 116,0 309,-110 425,-110 -13,77 -290,316 -271,567 857,-187 870,-612 1159,-696 -264,187 -760,1031 -747,1140 90,-58 689,-451 773,-502 -64,225 -19,464 -84,696 277,-180 676,-715 663,-870 -32,-26 -90,-116 -116,-161 39,13 -341,721 -374,683 13,19 361,-702 348,-779 -19,-103 -13,-225 32,-328 -64,0 -180,-26 -245,-45 -6,0 -180,103 -193,97 -19,-6 161,-135 135,-148 -58,-39 -116,-97 -161,-161 -45,-122 -805,303 -792,303zm1533 612c-174,631 -58,554 -90,812 167,-167 335,-335 509,-502 322,-386 341,-522 341,-618 64,-322 -663,593 -728,850 -142,-110 599,-1069 741,-1031 -77,39 -213,19 -283,52 -52,116 -110,406 -490,438zm805 -4206c0,103 0,213 6,322 -238,71 -438,213 -567,509 -167,-663 167,-779 560,-831zm2680 2422c374,103 586,251 638,432 103,-122 399,-71 651,-58 -567,-374 -992,-496 -1288,-374z"/>
   <g>
    <g>
     <path class="fil3" d="M4052 6390c34,-30 35,-135 18,-154l-9 -10c-17,-19 -97,-51 -140,-21 25,-204 -37,-389 -176,-524l260 -250 -77 -86c-152,119 -283,166 -457,184 -324,100 -479,256 -623,557 -17,136 -97,277 -215,416 26,29 51,58 77,86l282 -235c133,140 208,262 492,242 -29,35 -42,98 1,146l9 10c43,48 126,25 160,-5l310 318c-151,169 -156,96 -429,99 -117,-34 -160,-64 -206,-230 -124,-62 -330,-119 -435,-43 -836,609 -755,796 -1339,1473 -1069,714 -503,1019 386,431 150,90 141,81 331,-54 142,63 151,72 323,-82 134,53 134,53 305,-83 151,72 169,73 296,-75 159,82 159,82 331,-54 169,73 198,47 341,-63 32,75 255,-4 278,-94 151,72 257,-40 272,-140 111,125 399,-133 288,-257 72,-64 -72,64 -5,4l10247 11500 425 -374 -10274 -11482c111,125 380,-115 267,-222 132,-84 201,-180 134,-275 51,58 263,-149 160,-264 136,-156 146,-165 91,-323 146,-165 146,-165 91,-323 145,-147 145,-147 126,-303 172,-136 172,-136 126,-303 162,-128 153,-137 98,-295 147,-183 156,-192 91,-323 709,-634 704,-1682 -386,-431 -797,575 -1228,633 -1633,1184 -97,104 -61,279 13,420 107,42 214,85 206,230 -68,242 -10,268 -146,406l-287 -330z"/>
     <g>
      <path class="fil0" d="M14807 19140l-10989 -12290c-60,-67 -84,-132 -55,-158l249 -223c29,-26 91,5 151,72l10989 12290c60,67 84,132 55,158l-249 223c-29,26 -91,-5 -151,-72zm-11258 -12602l336 -300c38,-34 84,-32 118,7l4 5c34,38 32,84 -7,118l-336 300c-38,34 -84,32 -118,-7l-4 -5c-34,-38 -32,-84 7,-118zm-511 -233c225,-201 446,-399 676,-604 65,63 109,257 8,337 83,-14 153,27 157,127 -139,124 -273,244 -412,369 -89,-32 -151,-72 -108,-188 -192,94 -265,22 -321,-41zm-326 128c107,-131 156,-260 167,-382 129,-280 269,-413 561,-511 151,-5 298,-43 432,-144l43 48 -1160 1037c-26,-29 -21,-24 -43,-48z"/>
      <path id="1" class="fil10" d="M3837 6833l10989 12290 -37 33 -10989 -12290 0 0 37 -33zm-90 -160l33 37 0 0 -1 1 -1 1 -1 1 0 1 0 1 0 1 0 2 0 2 0 2 0 3 0 3 0 3 1 4 1 4 1 4 1 4 2 4 2 5 2 5 2 5 3 5 3 5 3 5 3 5 4 6 4 6 4 6 4 6 5 6 5 6 5 6 5 6 -37 33 -6 -7 -6 -7 -5 -7 -5 -7 -5 -7 -5 -7 -4 -7 -4 -6 -4 -6 -4 -6 -4 -6 -3 -6 -3 -6 -3 -6 -3 -6 -2 -6 -2 -6 -2 -6 -1 -6 -1 -6 -1 -6 0 -6 0 -6 0 -6 1 -6 1 -6 2 -6 2 -6 3 -5 3 -5 4 -5 4 -4 0 0zm282 -186l-249 223 -33 -37 249 -223 0 0 33 37zm153 37l-37 33 0 0 -5 -6 -5 -6 -5 -5 -5 -5 -5 -5 -5 -5 -5 -4 -5 -4 -5 -4 -5 -4 -5 -3 -5 -3 -5 -3 -5 -3 -4 -2 -4 -2 -4 -2 -4 -2 -4 -1 -3 -1 -3 -1 -3 -1 -3 0 -2 0 -2 0 -2 0 -1 0 -1 0 -1 0 -1 0 -1 0 -1 1 -33 -37 5 -4 5 -3 5 -3 6 -2 6 -2 6 -1 6 -1 6 0 6 0 6 1 6 1 6 1 6 2 6 2 6 2 6 3 6 3 6 3 6 3 6 4 6 4 6 4 6 4 6 5 6 5 6 5 6 5 6 6 6 6 6 6 6 6 6 7 0 0zm10952 12324l-10989 -12290 37 -33 10989 12290 0 0 -37 33zm90 160l-33 -37 0 0 1 -1 1 -1 1 -1 0 -1 0 -1 0 -1 0 -2 0 -2 0 -2 0 -3 0 -3 0 -3 -1 -4 -1 -4 -1 -4 -1 -4 -2 -4 -2 -5 -2 -5 -2 -5 -3 -5 -3 -5 -3 -5 -3 -5 -4 -6 -4 -6 -4 -6 -4 -6 -5 -6 -5 -6 -5 -6 -5 -6 37 -33 6 7 6 7 5 7 5 7 5 7 5 7 4 7 4 6 4 6 4 6 4 6 3 6 3 6 3 6 3 6 2 6 2 6 2 6 1 6 1 6 1 6 0 6 0 6 0 6 -1 6 -1 6 -2 6 -2 6 -3 5 -3 5 -4 5 -4 4 0 0zm-282 186l249 -223 33 37 -249 223 0 0 -33 -37zm-153 -37l37 -33 0 0 5 6 5 6 5 5 5 5 5 5 5 5 5 4 5 4 5 4 5 4 5 3 5 3 5 3 5 3 4 2 4 2 4 2 4 2 4 1 3 1 3 1 3 1 3 0 2 0 2 0 2 0 1 0 1 0 1 0 1 0 1 0 1 -1 33 37 -5 4 -5 3 -5 3 -6 2 -6 2 -6 1 -6 1 -6 0 -6 0 -6 -1 -6 -1 -6 -1 -6 -2 -6 -2 -6 -2 -6 -3 -6 -3 -6 -3 -6 -3 -6 -4 -6 -4 -6 -4 -6 -4 -6 -5 -6 -5 -6 -5 -6 -5 -6 -6 -6 -6 -6 -6 -6 -6 -6 -7 0 0zm-10888 -12900l-336 300 -33 -37 336 -300 33 37zm120 -29l-37 33 0 0 -3 -3 -3 -3 -3 -2 -3 -2 -3 -2 -3 -2 -3 -2 -3 -1 -2 -1 -3 -1 -2 -1 -2 -1 -2 -1 -2 0 -2 0 -2 0 -2 0 -2 0 -2 0 -3 0 -3 1 -3 1 -3 1 -3 1 -3 1 -3 1 -3 1 -3 2 -3 2 -3 2 -3 2 -3 2 -33 -37 4 -4 4 -4 5 -3 5 -3 5 -3 5 -3 5 -2 5 -2 5 -2 5 -2 5 -1 5 -1 5 -1 5 0 5 0 5 0 5 0 5 1 5 1 5 1 5 2 5 2 5 2 5 2 5 3 5 3 4 3 4 3 4 4 4 4 4 4 4 4 0 0zm-33 38l-4 -5 37 -33 4 5 -37 33 0 0zm29 120l-33 -37 0 0 3 -3 3 -3 2 -3 2 -3 2 -3 2 -3 2 -3 1 -3 1 -3 1 -2 1 -2 1 -2 1 -2 0 -2 0 -2 0 -2 0 -2 0 -2 0 -3 0 -3 0 -3 -1 -3 -1 -3 -1 -3 -1 -3 -1 -3 -1 -3 -2 -3 -2 -3 -2 -3 -2 -3 -2 -3 37 -33 4 4 4 4 3 5 3 5 3 5 3 5 2 5 2 5 2 5 2 5 1 5 1 5 1 5 0 5 0 5 0 5 0 5 -1 5 -1 5 -1 5 -2 5 -2 5 -2 5 -2 5 -3 5 -3 5 -3 4 -3 4 -4 4 -4 4 -4 4 -4 4 0 0zm-369 263l336 -300 33 37 -336 300 -33 -37zm-120 29l37 -33 0 0 3 3 3 3 3 2 3 2 3 2 3 2 3 2 3 1 3 1 2 1 3 1 2 1 2 1 2 0 2 0 2 0 2 0 2 0 3 0 3 0 3 0 3 -1 3 -1 3 -1 3 -1 3 -1 3 -1 3 -2 3 -2 3 -2 3 -2 3 -2 33 37 -4 4 -4 4 -5 3 -5 3 -5 3 -5 3 -5 2 -5 2 -5 2 -5 2 -5 1 -5 1 -5 1 -5 0 -5 0 -5 0 -5 0 -5 -1 -5 -1 -5 -1 -5 -2 -5 -2 -5 -2 -5 -2 -5 -3 -5 -3 -4 -3 -4 -3 -4 -4 -4 -4 -4 -4 -4 -4 0 0zm33 -38l4 5 -37 33 -4 -5 37 -33zm-29 -120l33 37 0 0 -3 3 -3 3 -2 3 -2 3 -2 3 -2 3 -2 3 -1 3 -1 2 -1 2 -1 3 -1 2 -1 2 0 2 0 2 0 2 0 2 0 2 0 2 0 3 1 3 1 3 1 3 1 3 1 3 1 3 1 3 2 3 2 3 2 3 2 3 2 3 -37 33 -4 -4 -4 -4 -3 -5 -3 -5 -3 -5 -3 -5 -2 -5 -2 -5 -2 -5 -2 -5 -1 -5 -1 -5 -1 -5 0 -5 0 -5 0 -5 0 -5 1 -5 1 -5 1 -5 2 -5 2 -5 2 -5 2 -5 3 -5 3 -5 3 -4 3 -4 4 -4 4 -4 4 -4 4 -4 0 0zm199 -837l-35 36 34 1 -22 19 -22 19 -21 19 -21 19 -21 19 -21 19 -21 19 -21 19 -21 19 -21 19 -21 19 -21 19 -21 19 -21 19 -21 19 -21 19 -21 19 -21 19 -21 19 -21 19 -21 19 -21 19 -21 19 -21 19 -21 19 -21 19 -21 19 -21 19 -21 19 -21 19 -21 19 -21 19 -33 -37 21 -19 21 -19 21 -19 21 -19 21 -19 21 -19 21 -19 21 -19 21 -19 21 -19 21 -19 21 -19 21 -19 21 -19 21 -19 21 -19 21 -19 21 -19 21 -19 21 -19 21 -19 21 -19 21 -19 21 -19 21 -19 21 -19 21 -19 21 -19 21 -19 21 -19 21 -19 22 -19 34 1zm-34 -1l17 -15 17 16 -34 -1zm21 331l8 49 -20 -44 7 -7 7 -7 6 -8 5 -8 5 -8 4 -9 4 -9 3 -10 3 -10 2 -11 2 -11 1 -11 1 -11 0 -11 0 -11 -1 -11 -1 -11 -2 -11 -2 -11 -3 -11 -3 -11 -3 -11 -4 -10 -4 -10 -4 -9 -4 -9 -5 -8 -5 -8 -5 -7 -5 -7 -5 -6 -5 -5 35 -36 7 8 7 8 7 9 6 9 6 10 6 10 5 11 5 11 5 12 4 12 4 12 3 13 3 13 3 13 2 13 2 13 1 13 1 14 0 14 -1 14 -1 13 -2 13 -3 13 -3 13 -4 13 -5 12 -6 12 -7 12 -8 11 -9 11 -10 10 -11 9 -20 -44zm8 49l-93 15 73 -59 20 44zm169 121l-33 -37 -8 19 0 -8 -1 -8 -1 -7 -1 -7 -2 -7 -2 -6 -2 -6 -2 -6 -3 -5 -3 -5 -3 -5 -3 -4 -3 -4 -4 -4 -4 -3 -4 -3 -4 -3 -4 -3 -5 -2 -5 -2 -5 -2 -5 -2 -5 -1 -6 -1 -6 -1 -6 -1 -6 0 -6 0 -6 0 -7 0 -7 1 -7 1 -8 -49 9 -1 9 -1 9 -1 9 0 8 0 8 1 8 1 8 1 8 2 8 2 8 3 8 3 7 3 7 4 7 4 7 5 6 5 6 5 6 6 5 6 5 7 5 7 4 7 4 8 4 8 3 8 3 9 2 9 2 9 1 10 1 10 1 10 -8 19zm8 -19l0 12 -9 8 8 -19zm-446 393l17 -47 -25 5 13 -12 13 -12 13 -12 13 -12 13 -12 13 -12 13 -12 13 -12 13 -11 13 -11 13 -11 13 -11 13 -11 13 -11 13 -11 13 -11 13 -11 13 -11 13 -11 13 -11 13 -11 13 -11 13 -11 13 -11 13 -12 13 -12 13 -12 13 -12 13 -12 13 -12 13 -12 13 -12 33 37 -13 12 -13 12 -13 12 -13 12 -13 12 -13 12 -13 12 -13 12 -13 11 -13 11 -13 11 -13 11 -13 11 -13 11 -13 11 -13 11 -13 11 -13 11 -13 11 -13 11 -13 11 -13 11 -13 11 -13 11 -13 12 -13 12 -13 12 -13 12 -13 12 -13 12 -13 12 -13 12 -25 5zm25 -5l-11 10 -14 -5 25 -5zm-114 -184l-22 -45 34 31 -3 10 -3 9 -2 9 -2 8 -1 8 -1 7 0 7 0 6 1 6 1 5 1 5 2 5 2 5 2 4 2 4 3 4 3 4 3 4 4 4 4 4 5 4 5 4 5 3 6 3 6 3 6 3 7 3 7 3 7 3 8 3 8 3 8 3 -17 47 -9 -3 -8 -3 -8 -3 -8 -3 -8 -4 -8 -4 -8 -4 -7 -4 -7 -4 -7 -5 -7 -5 -7 -5 -6 -5 -6 -6 -6 -6 -5 -7 -5 -7 -4 -7 -4 -8 -3 -8 -3 -8 -2 -9 -1 -9 -1 -9 0 -10 0 -10 1 -10 2 -10 2 -11 3 -11 3 -11 4 -12 34 31zm-22 -45l56 -27 -22 58 -34 -31zm-327 -37l33 37 2 -35 5 6 5 6 5 6 5 6 5 5 6 5 6 5 6 5 6 5 6 4 6 4 7 4 7 3 7 3 7 3 8 2 8 2 8 2 9 1 9 1 10 0 10 0 11 -1 12 -2 12 -2 13 -3 13 -4 14 -4 15 -5 16 -6 16 -7 17 -8 22 45 -18 9 -18 8 -17 7 -17 6 -16 5 -15 4 -15 3 -14 3 -14 2 -13 1 -13 0 -13 0 -12 -1 -12 -2 -11 -2 -11 -3 -10 -3 -10 -4 -10 -4 -9 -5 -9 -5 -8 -5 -8 -6 -8 -6 -7 -6 -7 -6 -7 -6 -6 -6 -6 -6 -6 -6 -6 -6 -5 -6 2 -35zm-2 35l-17 -19 19 -17 -2 35zm-163 -282l45 21 2 -8 -1 12 -1 12 -2 12 -2 12 -2 12 -2 12 -3 12 -3 12 -3 12 -3 12 -4 12 -4 12 -4 12 -5 12 -5 12 -5 12 -5 12 -6 12 -6 12 -6 12 -7 13 -7 13 -7 13 -8 13 -8 13 -8 13 -8 13 -9 13 -9 13 -9 13 -10 13 -10 13 -38 -32 10 -12 9 -12 9 -12 9 -12 8 -12 8 -12 8 -12 7 -12 7 -12 7 -12 6 -12 6 -12 6 -12 6 -12 5 -12 5 -12 5 -12 4 -12 4 -11 4 -11 4 -11 3 -11 3 -11 3 -11 3 -11 2 -11 2 -11 2 -11 2 -11 2 -11 1 -11 1 -11 2 -8zm-2 8l0 -4 2 -4 -2 8zm585 -533l2 50 7 -1 -27 9 -26 9 -25 10 -24 10 -23 10 -22 10 -22 11 -21 11 -20 11 -19 12 -19 12 -18 12 -18 13 -17 13 -17 14 -16 14 -16 15 -15 15 -15 16 -14 17 -14 17 -14 18 -13 18 -13 19 -13 20 -13 21 -13 21 -12 22 -12 23 -12 24 -12 25 -12 25 -45 -21 12 -26 12 -25 13 -25 13 -24 13 -23 13 -22 13 -22 14 -21 14 -20 14 -20 15 -19 15 -18 15 -18 16 -17 16 -16 17 -16 17 -15 18 -15 18 -14 19 -14 19 -13 20 -13 21 -12 21 -12 22 -12 23 -11 23 -11 24 -11 25 -10 26 -10 27 -10 27 -9 7 -1zm-7 1l3 -1 4 0 -7 1zm458 -137l-37 33 34 3 -13 10 -13 9 -13 9 -13 9 -13 8 -13 8 -13 7 -14 7 -14 7 -14 6 -14 6 -14 6 -14 5 -14 5 -14 5 -14 5 -14 4 -14 4 -14 4 -14 3 -14 3 -14 3 -14 3 -14 2 -14 2 -14 2 -14 2 -14 1 -14 1 -14 1 -14 1 -14 1 -2 -50 14 -1 14 -1 14 -1 14 -1 14 -1 14 -2 14 -2 14 -2 13 -2 13 -2 13 -3 13 -3 13 -3 13 -3 13 -4 13 -4 13 -4 13 -5 13 -5 13 -5 13 -5 13 -6 13 -6 13 -6 13 -7 13 -7 12 -7 12 -8 12 -8 12 -8 12 -9 12 -9 34 3zm-34 -3l18 -14 15 17 -34 -3zm39 84l-43 -48 37 -33 43 48 -2 35 -35 -2zm37 -33l17 19 -19 17 2 -35zm-1195 1035l1160 -1037 33 37 -1160 1037 -35 -2 2 -35zm33 37l-19 17 -17 -19 35 2zm-79 -82l38 32 -1 -32 2 2 2 2 2 2 2 2 1 2 1 1 1 1 1 1 1 1 1 1 1 1 1 1 1 1 1 1 1 1 1 1 1 1 1 1 1 1 1 1 1 1 1 1 1 1 1 1 1 2 1 2 2 2 2 2 2 2 2 2 2 2 2 3 -37 33 -2 -3 -2 -2 -2 -2 -2 -2 -2 -2 -2 -2 -1 -2 -1 -2 -1 -1 -1 -1 -1 -1 -1 -1 -1 -1 -1 -1 -1 -1 -1 -1 -1 -1 -1 -1 -1 -1 -1 -1 -1 -1 -1 -1 -1 -1 -1 -1 -1 -1 -1 -1 -1 -2 -1 -2 -1 -2 -2 -2 -2 -2 -2 -2 -1 -32zm1 32l-14 -16 14 -17 1 32z"/>
     </g>
    </g>
    <g>
     <path class="fil11 str0" d="M1937 7924c225,-201 471,-680 973,-947 478,-237 239,528 1088,175 -518,463 -710,238 -938,330 -597,249 -613,462 -1122,443z"/>
     <path class="fil11 str0" d="M5415 4814c-225,201 -728,392 -1050,861 -289,448 498,297 52,1100 518,-463 316,-679 433,-896 314,-565 528,-558 565,-1066z"/>
     <path class="fil11 str0" d="M1302 8610c278,-171 436,-390 600,-631 29,207 62,687 -170,833 -206,184 -615,248 -675,181 -64,-72 38,-198 245,-383z"/>
     <path class="fil11 str0" d="M6256 4218c-201,257 -436,390 -694,526 202,52 675,138 847,-76 206,-184 315,-584 255,-651 -64,-72 -201,16 -407,200z"/>
     <path class="fil11 str0" d="M4363 7831c-191,-407 -37,-389 165,-96 -34,30 -99,63 -165,96zm-256 100c-167,-515 54,-393 181,-58 -23,12 -135,61 -181,58zm-296 75c-88,-542 129,-348 221,-42 -55,15 -139,47 -221,42zm-309 78c-64,-486 160,-342 230,-42 -74,14 -148,46 -230,42zm-299 52c-29,-466 110,-331 234,-28 -91,-5 -152,32 -234,28zm-315 92c-18,-484 178,-332 212,-52 -79,27 -130,38 -212,52zm-323 73c25,-454 148,-365 258,-49 -88,27 -157,37 -258,49zm-588 95c3,-373 216,-288 232,-1 -91,-5 -151,5 -232,1zm294 -38c35,-472 210,-334 234,-28 -91,-5 -152,32 -234,28zm-59 70c155,482 -429,418 -252,27 86,9 169,-4 252,-27zm313 -55c107,448 -322,460 -262,45 101,-13 174,-18 262,-45zm315 -92c108,507 -355,404 -264,81 111,-39 176,-45 264,-81zm291 -70c150,496 -320,433 -245,64 97,-17 170,-31 245,-64zm318 -60c137,481 -302,434 -257,40 101,-22 185,-44 257,-40zm308 -60c149,514 -320,424 -258,49 120,-21 170,-22 258,-49zm287 -75c202,371 -236,479 -221,51 83,-14 166,-36 221,-51zm289 -111c174,397 -219,489 -233,87 106,-26 162,-50 233,-87zm236 -151c297,304 -151,574 -203,130 62,-47 169,-82 203,-130z"/>
     <path class="fil11 str0" d="M5064 7178c-383,-235 -383,-81 -113,153 34,-30 73,-92 113,-153zm127 -243c-493,-223 -397,10 -78,173 15,-22 75,-128 78,-173zm107 -285c-529,-148 -360,89 -67,215 21,-53 62,-133 67,-215zm112 -299c-476,-118 -357,121 -67,224 22,-72 63,-142 67,-224zm85 -291c-460,-80 -341,72 -54,229 5,-91 49,-148 54,-229zm126 -303c-479,-72 -349,140 -75,205 36,-75 53,-125 75,-205zm109 -313c-454,-25 -379,106 -78,251 37,-84 54,-152 78,-251zm160 -574c-371,-39 -311,183 -27,231 5,-91 22,-149 27,-231zm-71 287c-473,-17 -356,171 -54,229 5,-91 49,-148 54,-229zm76 -50c462,208 463,-379 55,-247 0,87 -23,167 -55,247zm-90 305c433,156 493,-268 73,-255 -24,99 -37,171 -73,255zm-126 303c492,164 441,-308 110,-253 -51,106 -64,169 -110,253zm-102 281c476,204 466,-270 91,-236 -28,94 -50,166 -91,236zm-95 309c463,190 465,-252 69,-251 -33,98 -65,179 -69,251zm-94 300c494,205 457,-270 78,-251 -34,117 -41,166 -78,251zm-107 276c346,243 502,-181 76,-214 -23,81 -55,161 -76,214zm-143 274c375,217 510,-163 113,-221 -38,103 -68,156 -113,221zm-176 218c268,329 588,-86 152,-187 -53,56 -100,158 -152,187z"/>
     <path class="fil11 str0" d="M1984 8019c-40,-180 97,147 1001,-472 204,-139 574,82 1046,-374 42,57 181,183 228,236 53,117 -530,285 -1026,348 -674,172 -1440,502 -1249,263z"/>
     <path class="fil11 str0" d="M5556 4841c-174,-60 135,112 -581,942 -161,187 18,579 -488,997 52,48 162,200 209,253 110,65 342,-495 460,-981 246,-651 660,-1375 400,-1212z"/>
    </g>
    <path class="fil3 str0" d="M4542 10376c-15,-65 -346,163 -357,121 -3,-23 315,-429 321,-451 24,-272 317,-706 512,-846 446,-80 154,578 65,873 -69,251 -118,727 9,984 399,842 3954,-1077 4873,-10 907,1053 -180,3214 450,3919 823,920 3286,-531 3366,1450 -817,-1589 -2871,-47 -3788,-1072 -900,-1007 400,-3074 -380,-3947 -724,-810 -3986,1253 -4973,4 -272,-343 -82,-574 -97,-1026z"/>
    <path class="fil3 str0" d="M7536 7654c-63,-22 196,-331 160,-342 -18,-10 -455,234 -587,231 -264,-6 -699,280 -806,497 -24,108 -35,135 17,183 126,-61 85,182 773,-52 296,-75 822,-45 1060,105 787,495 -1511,3809 -553,4842 945,1018 3214,180 3844,884 823,920 -894,3206 1065,3507 -1488,-989 274,-2858 -644,-3884 -900,-1007 -3100,54 -3880,-818 -724,-810 1689,-3822 559,-4942 -311,-309 -561,-145 -1008,-211z"/>
    <g>
     <path class="fil11" d="M10349 13614c-2,-205 11,-277 8,-396 325,-32 1120,8 1469,446 604,762 -119,1961 -3,2659 113,676 48,613 469,1064 -156,-68 -582,-187 -667,-611 -164,-811 410,-2281 -93,-2824 -197,-220 -812,-378 -1183,-339z"/>
     <path id="1" class="fil10" d="M10356 13208l2 20 9 -10 0 11 0 11 0 11 0 10 0 10 0 10 0 10 0 10 0 10 0 10 0 10 0 10 0 10 0 10 -1 11 -1 11 -1 11 -1 11 0 12 0 12 0 12 0 13 0 13 0 14 0 14 0 15 0 15 0 16 0 17 0 17 0 18 0 19 -20 0 0 -19 0 -18 0 -17 0 -17 0 -16 0 -15 0 -15 0 -14 0 -14 0 -13 0 -13 0 -12 0 -12 0 -12 1 -11 1 -11 1 -11 1 -11 0 -10 0 -10 0 -10 0 -10 0 -10 0 -10 0 -10 0 -10 0 -10 0 -10 0 -10 0 -10 0 -11 0 -11 9 -10zm-9 10l0 -9 9 -1 -9 10zm1486 440l-16 12 0 0 -34 -39 -36 -37 -38 -35 -40 -33 -42 -31 -44 -29 -46 -27 -47 -25 -48 -23 -50 -21 -51 -20 -51 -18 -52 -17 -52 -15 -53 -13 -53 -12 -53 -11 -53 -9 -52 -8 -52 -7 -51 -6 -50 -5 -49 -4 -48 -3 -46 -2 -45 -1 -43 0 -41 0 -39 1 -37 2 -34 2 -32 3 -2 -20 32 -3 35 -2 37 -2 39 -1 41 0 43 0 45 1 47 2 48 3 49 4 50 5 51 6 52 7 53 8 53 9 53 11 53 12 53 14 53 15 53 17 52 18 51 20 50 22 49 24 48 25 47 27 45 29 43 32 41 34 39 36 37 38 34 40 0 0zm0 0l0 0 3 3 -3 -4zm-1 2664l-20 3 0 0 -9 -68 -4 -70 0 -73 4 -75 7 -77 10 -79 13 -81 15 -83 17 -84 18 -86 19 -87 19 -88 20 -89 19 -89 19 -90 18 -90 16 -90 14 -90 12 -90 10 -90 7 -89 3 -88 -1 -88 -5 -86 -9 -85 -14 -84 -20 -82 -25 -81 -32 -79 -38 -77 -45 -74 -52 -72 16 -12 53 73 46 76 39 78 32 80 26 82 20 84 15 85 10 86 5 87 1 88 -3 89 -7 90 -10 90 -12 91 -14 91 -16 91 -18 90 -19 90 -19 89 -20 89 -19 88 -19 87 -18 85 -17 84 -15 82 -13 81 -10 79 -7 77 -4 74 0 72 4 69 8 66 0 0zm455 1075l8 -18 -11 16 -38 -41 -35 -38 -33 -36 -30 -33 -28 -31 -26 -29 -24 -28 -22 -26 -20 -25 -18 -24 -16 -24 -15 -23 -14 -23 -12 -23 -11 -23 -10 -24 -9 -24 -8 -25 -8 -26 -7 -27 -7 -29 -6 -31 -6 -33 -6 -35 -6 -37 -6 -40 -7 -43 -7 -46 -8 -50 -8 -53 -9 -57 -10 -61 20 -3 10 61 9 57 8 53 8 50 7 46 7 43 6 40 6 37 6 35 6 32 6 30 7 29 7 27 8 26 8 24 9 23 10 23 11 22 12 22 13 22 15 23 16 23 18 24 20 25 21 26 23 27 26 29 28 31 30 33 33 36 35 38 38 41 -11 16zm11 -16l33 35 -44 -19 11 -16zm-684 -602l20 -4 0 0 9 38 11 37 12 35 14 33 16 32 17 30 18 29 20 27 21 26 22 25 22 23 23 22 24 21 24 20 25 19 25 17 25 16 26 15 26 15 25 14 25 13 25 12 24 11 24 11 23 10 22 9 22 9 21 8 19 8 18 7 17 7 16 7 -8 18 -15 -6 -17 -7 -18 -7 -19 -8 -21 -8 -22 -9 -23 -9 -23 -10 -24 -11 -25 -11 -25 -12 -26 -13 -26 -14 -26 -15 -26 -16 -26 -17 -26 -18 -25 -19 -25 -20 -25 -21 -24 -23 -23 -24 -22 -25 -21 -27 -20 -28 -19 -30 -18 -31 -16 -33 -15 -34 -13 -36 -11 -38 -9 -39 0 0zm-90 -2819l15 -13 0 0 45 54 39 60 33 64 27 69 22 73 18 77 13 81 9 84 6 87 2 90 -1 92 -3 94 -6 96 -8 98 -9 99 -11 100 -12 101 -12 102 -13 102 -13 102 -12 101 -12 100 -11 100 -9 98 -8 97 -6 95 -3 93 -1 90 2 87 6 84 9 81 13 77 -20 4 -13 -78 -9 -82 -6 -85 -2 -88 1 -91 3 -93 6 -95 8 -97 9 -98 11 -100 12 -101 12 -101 13 -102 13 -102 12 -101 12 -101 11 -100 9 -99 8 -98 6 -96 3 -94 1 -92 -2 -89 -5 -86 -9 -83 -13 -80 -17 -76 -22 -72 -27 -67 -32 -63 -37 -58 -43 -53 0 0zm0 0l0 0 0 0 0 0zm-1186 -346l20 0 -11 -10 36 -3 37 -2 38 -1 39 0 40 1 41 2 42 3 42 4 43 5 43 6 43 7 43 8 43 9 43 10 43 11 43 11 42 12 41 13 41 14 40 14 39 15 38 16 37 16 35 17 34 17 32 18 30 18 29 19 27 20 25 20 22 21 20 21 -15 13 -19 -20 -22 -20 -24 -19 -26 -19 -28 -19 -30 -18 -32 -18 -33 -17 -35 -17 -36 -16 -37 -15 -38 -15 -39 -14 -40 -13 -41 -13 -42 -12 -42 -11 -43 -10 -43 -10 -43 -9 -43 -8 -43 -7 -43 -6 -42 -5 -42 -4 -41 -3 -41 -2 -40 -1 -39 0 -38 1 -36 2 -35 3 -11 -10zm11 10l-11 1 0 -11 11 10z"/>
    </g>
    <g>
     <path class="fil11" d="M12070 15348c1025,-88 1575,179 1669,931 -167,-524 -955,-759 -1707,-665 14,-90 27,-162 38,-267z"/>
     <path id="1" class="fil10" d="M13730 16282l19 -6 -19 4 -10 -69 -13 -66 -15 -63 -18 -60 -21 -57 -23 -55 -26 -52 -29 -49 -31 -47 -34 -44 -37 -42 -39 -39 -42 -36 -45 -34 -47 -31 -50 -29 -53 -27 -56 -24 -58 -22 -61 -19 -64 -17 -67 -15 -69 -13 -72 -10 -75 -8 -78 -6 -81 -4 -83 -1 -86 1 -89 3 -92 5 -95 7 -2 -20 95 -7 92 -5 89 -3 87 -1 84 1 81 4 78 6 76 8 73 10 70 13 67 15 65 17 62 20 59 22 57 25 54 27 51 30 48 32 46 35 43 37 40 40 38 43 35 45 32 48 29 50 27 53 24 56 21 58 18 61 16 64 13 67 10 70 -19 4zm19 -4l14 108 -33 -104 19 -4zm-1727 -665l20 3 -11 -11 71 -8 71 -6 71 -4 71 -2 71 0 70 2 70 4 69 5 68 7 67 9 66 11 65 13 64 15 63 17 61 18 60 20 58 22 56 24 54 26 52 28 50 29 48 31 45 33 43 35 40 37 37 38 34 40 31 42 28 44 25 46 21 47 18 49 -19 6 -17 -48 -21 -46 -24 -44 -27 -43 -30 -41 -33 -39 -36 -38 -39 -36 -42 -34 -44 -32 -47 -31 -49 -29 -51 -27 -53 -25 -55 -24 -57 -22 -59 -20 -61 -18 -62 -16 -63 -15 -65 -13 -66 -11 -67 -9 -68 -7 -68 -5 -69 -4 -70 -2 -70 0 -70 2 -70 4 -70 6 -70 8 -11 -11zm11 11l-13 2 2 -13 11 11zm36 -286l2 20 9 -9 -1 10 -1 10 -1 9 -1 9 -1 9 -1 9 -1 9 -1 9 -1 9 -1 8 -1 8 -1 8 -1 8 -1 8 -1 8 -1 8 -1 8 -1 8 -1 8 -1 8 -1 8 -1 8 -1 8 -1 8 -1 8 -1 8 -1 8 -1 8 -1 8 -1 8 -1 8 -1 8 -20 -3 1 -8 1 -8 1 -8 1 -8 1 -8 1 -8 1 -8 1 -8 1 -8 1 -8 1 -8 1 -8 1 -8 1 -8 1 -8 1 -8 1 -8 1 -8 1 -8 1 -8 1 -8 1 -8 1 -8 1 -8 1 -9 1 -9 1 -9 1 -9 1 -9 1 -9 1 -9 1 -10 9 -9zm-9 9l1 -8 8 -1 -9 9z"/>
    </g>
    <g>
     <path class="fil11" d="M9770 13720c4,-228 168,-806 179,-1488 11,-682 -300,-1078 -731,-1106 -431,-29 -837,67 -1040,119 48,-129 122,-316 166,-451 1366,-151 1506,180 1675,417 169,237 252,706 266,953 14,247 -55,1058 -78,1553 -159,1134 136,1647 1389,1621 -5,168 -35,144 -58,302 -1209,210 -2029,-359 -1769,-1920z"/>
     <path id="1" class="fil10" d="M9938 12232l20 0 0 0 -1 64 -2 63 -3 62 -4 62 -4 61 -5 60 -6 59 -6 58 -7 57 -7 56 -7 55 -8 54 -8 53 -8 52 -8 50 -8 49 -8 48 -8 46 -8 45 -8 44 -7 42 -7 40 -7 39 -6 37 -6 35 -5 34 -5 32 -4 30 -3 28 -3 26 -2 24 -1 22 -20 0 1 -23 2 -25 3 -27 3 -28 4 -30 5 -32 5 -34 6 -36 6 -37 7 -39 7 -40 7 -42 8 -43 8 -45 8 -46 8 -48 8 -49 8 -50 8 -52 8 -53 8 -54 7 -55 7 -56 7 -57 6 -58 6 -59 5 -60 4 -61 4 -61 3 -62 2 -63 1 -64 0 0zm-721 -1096l1 -20 0 0 41 4 40 6 39 8 38 10 37 12 37 14 36 17 35 19 34 21 33 23 31 25 30 27 29 29 28 31 27 33 25 35 24 37 23 38 21 40 20 42 18 44 17 46 15 48 14 50 12 51 11 53 9 55 7 57 5 58 4 60 2 62 0 63 -20 0 0 -63 -2 -61 -4 -59 -5 -58 -7 -56 -9 -54 -10 -52 -12 -51 -14 -49 -15 -47 -17 -45 -18 -43 -19 -41 -21 -40 -22 -38 -23 -36 -25 -34 -26 -32 -27 -30 -28 -28 -29 -26 -31 -24 -32 -22 -33 -20 -34 -18 -35 -16 -35 -14 -36 -12 -37 -10 -38 -8 -39 -6 -40 -4 0 0zm-1049 106l19 7 -12 -13 20 -5 21 -5 22 -5 23 -6 24 -6 25 -6 26 -6 27 -6 28 -6 29 -6 30 -6 31 -6 31 -6 32 -6 33 -5 34 -5 34 -5 35 -5 36 -4 36 -4 37 -4 37 -3 38 -3 38 -2 39 -2 39 -1 39 -1 40 0 40 0 40 1 40 2 41 2 -1 20 -40 -2 -40 -2 -40 -1 -40 0 -39 0 -39 1 -39 1 -38 2 -38 2 -37 3 -37 3 -36 4 -36 4 -35 4 -35 5 -34 5 -33 5 -33 5 -32 6 -31 6 -31 6 -30 6 -29 6 -28 6 -27 6 -26 6 -25 6 -24 6 -23 6 -22 5 -21 5 -20 5 -12 -13zm12 13l-18 5 7 -18 12 13zm163 -470l2 20 8 -7 -4 13 -4 13 -5 13 -5 14 -5 14 -5 14 -5 14 -5 14 -5 15 -5 15 -5 15 -5 15 -6 15 -6 15 -6 15 -6 15 -6 15 -6 15 -6 15 -6 15 -6 15 -6 15 -6 14 -5 14 -5 14 -5 14 -5 14 -5 13 -5 13 -5 13 -5 13 -5 12 -19 -7 5 -12 5 -13 5 -13 5 -13 5 -13 5 -14 5 -14 5 -14 5 -14 6 -14 6 -15 6 -15 6 -15 6 -15 6 -15 6 -15 6 -15 6 -15 6 -15 6 -15 5 -15 5 -15 5 -15 5 -14 5 -14 5 -14 5 -14 5 -14 5 -14 5 -13 4 -13 4 -13 8 -7zm-8 7l2 -6 6 -1 -8 7zm1693 414l-16 12 0 0 -16 -23 -16 -23 -16 -23 -17 -23 -17 -23 -18 -23 -19 -23 -21 -23 -22 -23 -24 -22 -26 -22 -29 -21 -31 -21 -34 -20 -37 -19 -40 -18 -44 -17 -48 -16 -52 -14 -56 -13 -60 -11 -65 -10 -70 -8 -75 -6 -80 -4 -86 -2 -92 0 -98 3 -104 5 -111 7 -117 10 -124 13 -2 -20 125 -13 118 -10 111 -7 105 -5 98 -3 92 0 86 2 81 4 76 6 71 8 66 10 61 11 57 13 52 14 49 16 45 17 41 18 38 19 35 20 32 21 30 22 27 23 25 23 23 23 21 24 20 24 19 24 18 24 17 24 16 23 16 23 16 22 0 0zm267 958l-20 1 0 0 -1 -24 -2 -25 -2 -26 -3 -27 -3 -28 -4 -29 -4 -30 -4 -30 -5 -31 -5 -32 -6 -32 -6 -32 -7 -33 -7 -33 -7 -33 -8 -33 -8 -33 -9 -33 -9 -33 -10 -33 -10 -32 -11 -32 -11 -31 -12 -31 -12 -30 -13 -29 -13 -28 -13 -27 -14 -26 -14 -25 -15 -24 -15 -23 16 -12 16 23 15 24 15 26 14 27 14 28 13 29 13 30 12 30 12 31 11 32 11 32 10 33 10 33 9 33 9 33 8 33 8 33 8 33 7 33 7 33 6 33 6 32 5 32 5 31 4 31 4 30 4 29 3 28 3 27 2 26 2 25 1 24 0 0zm-78 1555l-20 -3 0 1 2 -47 3 -49 3 -51 3 -52 3 -53 3 -54 3 -55 4 -56 4 -56 4 -57 4 -57 4 -57 4 -57 4 -57 4 -56 3 -56 3 -55 3 -54 3 -53 3 -52 3 -50 2 -49 2 -47 2 -45 2 -43 1 -41 1 -39 1 -36 0 -34 0 -31 -1 -28 -1 -25 20 -1 1 25 1 28 0 31 0 34 -1 36 -1 39 -1 41 -2 43 -2 45 -2 47 -2 49 -3 51 -3 52 -3 53 -3 54 -3 55 -3 56 -4 56 -4 57 -4 57 -4 57 -4 57 -4 57 -4 56 -4 56 -3 55 -3 54 -3 53 -3 52 -3 51 -3 49 -2 47 0 1zm0 -1l0 1 0 0 0 -1zm1389 1621l-20 -1 10 10 -115 1 -110 -2 -104 -6 -99 -9 -94 -12 -88 -15 -83 -19 -79 -22 -74 -25 -69 -29 -64 -32 -60 -35 -55 -39 -51 -42 -46 -46 -42 -49 -38 -52 -34 -56 -30 -59 -26 -63 -22 -66 -18 -70 -15 -73 -11 -76 -8 -80 -4 -83 -1 -87 2 -90 5 -94 8 -98 11 -101 14 -105 20 3 -14 104 -11 101 -8 97 -5 93 -2 90 1 86 4 83 8 79 11 75 14 72 18 68 22 65 25 61 29 58 33 54 37 51 41 48 45 44 49 41 54 38 58 35 63 31 68 28 73 25 77 22 82 18 88 15 93 12 98 9 103 6 109 2 114 -1 10 10zm-10 -10l10 0 0 10 -10 -10zm-56 322l-3 -20 -8 8 2 -14 2 -13 2 -13 2 -12 2 -11 2 -10 2 -9 2 -9 2 -8 2 -8 2 -7 2 -7 2 -7 2 -7 2 -7 2 -6 2 -6 2 -6 2 -7 2 -7 2 -7 2 -8 2 -8 1 -8 1 -9 1 -10 1 -10 1 -11 1 -12 1 -13 1 -14 1 -15 20 1 -1 15 -1 14 -1 13 -1 12 -1 12 -1 11 -1 10 -1 9 -2 9 -2 8 -2 8 -2 8 -2 7 -2 7 -2 7 -2 7 -2 7 -2 7 -2 7 -2 7 -2 7 -2 7 -2 8 -2 8 -2 9 -2 9 -2 10 -2 11 -2 11 -2 12 -2 13 -2 14 -8 8zm8 -8l-1 7 -7 1 8 -8zm-1789 -1922l20 0 0 1 -21 143 -15 137 -9 132 -3 126 3 120 8 114 14 109 19 103 25 98 30 92 35 87 40 81 44 76 49 71 54 66 58 60 62 55 66 50 70 45 74 40 78 35 82 30 85 25 89 20 92 16 95 11 98 6 101 1 104 -3 107 -8 109 -13 112 -17 3 20 -113 17 -110 13 -108 8 -105 3 -102 -1 -99 -6 -96 -11 -93 -16 -90 -21 -87 -26 -83 -31 -79 -36 -76 -41 -72 -46 -68 -51 -63 -56 -59 -62 -55 -67 -50 -72 -45 -77 -40 -83 -35 -88 -30 -94 -25 -99 -20 -104 -14 -110 -9 -116 -3 -121 3 -127 9 -132 15 -138 21 -144 0 1zm20 0l0 1 0 1 0 -1z"/>
    </g>
    <g>
     <path class="fil11" d="M8795 8883c-22,477 -547,1964 -786,2488 -239,524 -348,1260 25,1582 374,321 1279,254 1673,289 -48,52 -48,293 -57,361 -399,-31 -1656,-20 -2030,-583 -374,-563 -177,-1153 -6,-1849 171,-696 786,-2169 733,-2605 -53,-436 -402,-460 -734,-474 -68,-8 -271,-42 -444,-34 -389,28 -678,-6 -831,113 -91,-169 198,-367 407,-433 165,-18 103,115 240,114 37,-7 137,-97 184,-113 70,-28 192,-94 278,-85 391,99 746,-63 1023,189 277,252 347,561 324,1038z"/>
     <path id="1" class="fil10" d="M8018 11376l-18 -8 0 0 23 -52 25 -57 26 -62 27 -67 28 -71 29 -75 30 -78 31 -81 31 -84 32 -86 32 -88 32 -90 32 -91 32 -92 31 -93 31 -93 30 -93 30 -92 29 -92 28 -90 26 -89 25 -87 24 -85 22 -82 20 -79 18 -75 16 -72 14 -67 11 -63 9 -58 6 -53 3 -47 20 1 -4 48 -6 54 -9 59 -12 63 -14 68 -16 72 -18 76 -20 79 -22 82 -24 85 -25 87 -26 89 -28 91 -29 92 -30 93 -30 93 -31 93 -32 93 -32 92 -32 91 -32 90 -32 88 -32 86 -31 84 -31 81 -30 78 -29 75 -28 71 -27 67 -26 62 -25 57 -23 52 0 0zm23 1570l-13 15 0 0 -34 -32 -31 -34 -29 -36 -26 -39 -23 -41 -21 -42 -18 -44 -16 -46 -13 -47 -11 -49 -9 -50 -7 -51 -5 -52 -3 -53 -1 -54 1 -54 3 -55 5 -55 6 -56 8 -56 9 -56 11 -56 12 -56 14 -56 15 -55 16 -55 17 -54 18 -54 19 -53 20 -52 21 -51 22 -50 18 8 -22 50 -21 51 -20 52 -19 53 -18 53 -17 54 -16 55 -15 55 -14 55 -12 56 -11 56 -9 56 -8 55 -6 55 -5 55 -3 54 -1 54 1 53 3 52 5 51 7 50 9 49 11 48 13 46 15 45 18 43 20 41 23 39 25 37 28 35 30 33 33 31 0 0zm1674 304l-15 -14 6 17 -38 -3 -41 -3 -44 -2 -46 -2 -48 -2 -51 -1 -52 -1 -54 -1 -56 -1 -57 -2 -58 -2 -59 -2 -60 -3 -60 -3 -60 -4 -61 -5 -61 -6 -60 -7 -60 -8 -59 -9 -58 -10 -57 -11 -56 -13 -55 -14 -53 -16 -52 -17 -50 -19 -48 -21 -45 -23 -43 -25 -40 -27 -37 -29 13 -15 36 29 39 26 42 24 44 22 47 21 49 19 51 17 53 15 54 14 56 12 57 11 58 10 59 9 60 8 60 7 60 6 60 5 60 4 60 3 59 3 59 2 58 2 57 2 55 1 54 1 52 1 51 1 49 2 46 2 44 2 41 3 39 3 6 17zm-6 -17l20 2 -14 15 -6 -17zm-58 381l2 -20 -11 9 1 -7 1 -8 1 -9 1 -9 1 -10 1 -11 1 -12 1 -12 1 -13 1 -13 1 -13 1 -14 1 -14 1 -14 1 -14 1 -14 1 -14 2 -14 2 -14 2 -14 2 -13 2 -13 2 -13 3 -12 3 -12 3 -11 3 -10 4 -10 4 -9 4 -8 5 -7 5 -6 15 14 -4 4 -4 6 -3 7 -3 8 -3 9 -3 10 -3 10 -3 11 -2 12 -2 12 -2 13 -2 13 -2 13 -2 14 -2 14 -1 14 -1 14 -1 14 -1 14 -1 14 -1 14 -1 13 -1 13 -1 13 -1 12 -1 12 -1 11 -1 10 -1 10 -1 9 -1 8 -1 7 -11 9zm11 -9l-1 9 -10 -1 11 -9zm-2049 -578l17 -11 0 0 37 50 42 47 46 44 51 41 55 38 58 36 61 33 64 31 67 28 69 26 71 24 73 21 75 19 76 18 76 16 77 14 77 13 77 11 76 10 75 9 74 8 73 7 71 6 69 5 66 4 63 4 60 3 57 3 53 3 49 3 45 3 40 3 -2 20 -40 -3 -44 -3 -49 -3 -53 -3 -57 -3 -60 -3 -63 -4 -66 -4 -69 -5 -71 -6 -73 -7 -74 -8 -75 -9 -76 -10 -77 -11 -77 -13 -77 -14 -77 -16 -76 -18 -75 -20 -74 -22 -72 -24 -70 -26 -68 -28 -65 -31 -62 -34 -59 -36 -56 -39 -52 -42 -48 -45 -43 -49 -38 -52 0 0zm-7 -1857l19 5 0 0 -16 65 -16 64 -16 64 -16 63 -16 63 -15 62 -15 61 -14 61 -13 60 -13 60 -12 59 -11 59 -9 58 -8 58 -7 58 -5 57 -4 57 -2 56 0 56 2 56 4 55 6 55 8 55 10 54 13 54 15 54 18 53 21 53 24 53 27 53 30 53 33 52 -17 11 -34 -53 -30 -53 -27 -54 -24 -54 -21 -54 -18 -54 -16 -55 -13 -55 -11 -55 -8 -55 -6 -56 -4 -56 -2 -56 0 -57 2 -57 4 -57 5 -58 7 -58 8 -58 9 -59 11 -59 12 -60 13 -60 13 -61 14 -61 15 -62 15 -62 16 -63 16 -63 16 -64 16 -64 16 -65 0 0zm733 -2601l20 -2 0 0 3 45 -1 50 -4 56 -8 61 -11 65 -14 70 -16 74 -19 77 -21 81 -23 84 -25 86 -27 89 -28 91 -29 93 -30 94 -31 95 -32 96 -32 96 -33 96 -33 96 -32 96 -32 95 -32 93 -31 92 -30 90 -29 88 -27 85 -26 82 -24 79 -22 75 -20 72 -17 67 -19 -5 17 -68 20 -72 22 -76 24 -79 26 -82 27 -85 29 -88 30 -90 31 -92 32 -94 32 -95 32 -96 33 -96 33 -96 32 -96 32 -96 31 -95 30 -94 29 -93 28 -91 27 -89 25 -86 23 -83 21 -80 19 -77 16 -73 13 -69 11 -64 7 -60 4 -54 1 -49 -3 -43 0 0zm-725 -465l2 -20 -1 0 31 1 31 1 31 2 31 2 31 2 31 3 31 3 30 4 30 5 30 5 29 6 29 7 28 8 28 9 27 10 26 11 25 13 25 14 24 15 23 17 22 18 21 20 19 22 18 24 17 25 15 27 14 29 12 31 11 33 9 36 8 38 6 40 -20 2 -6 -39 -7 -37 -9 -34 -11 -32 -12 -30 -13 -28 -15 -26 -16 -24 -17 -22 -18 -21 -20 -19 -21 -18 -22 -16 -23 -15 -24 -13 -24 -12 -25 -11 -26 -10 -27 -9 -28 -8 -28 -7 -29 -6 -29 -5 -30 -4 -30 -4 -30 -3 -31 -3 -31 -2 -31 -2 -31 -2 -31 -1 -31 -1 -1 0zm1 0l0 0 0 0 1 0zm-443 -34l-1 -20 0 0 17 -1 17 0 17 0 17 0 17 0 17 0 17 1 17 1 17 1 17 1 16 1 16 1 16 1 16 1 16 2 15 2 15 2 15 2 14 2 14 2 14 2 13 2 13 2 12 2 11 2 11 2 10 1 10 1 9 1 8 1 7 1 7 1 -2 20 -7 -1 -8 -1 -8 -1 -9 -1 -10 -1 -10 -1 -11 -2 -11 -2 -12 -2 -13 -2 -13 -2 -13 -2 -14 -2 -14 -2 -15 -2 -15 -2 -15 -2 -16 -2 -16 -1 -16 -1 -16 -1 -16 -1 -16 -1 -17 -1 -17 -1 -17 -1 -17 0 -17 0 -17 0 -16 0 -16 0 -16 1 0 0zm-1 -20l0 0 0 0 0 0zm-839 128l18 -9 -15 -3 15 -11 16 -10 17 -9 18 -8 18 -8 19 -7 20 -6 20 -6 21 -5 22 -4 23 -4 23 -3 24 -3 25 -3 25 -2 26 -2 27 -2 27 -2 28 -1 29 -1 29 -1 30 -1 31 -1 31 -1 32 -1 32 -1 33 -1 34 -1 34 -2 35 -2 35 -2 36 -2 1 20 -36 2 -36 2 -35 2 -34 2 -34 1 -33 1 -33 1 -32 1 -31 1 -31 1 -30 1 -29 1 -29 1 -28 1 -27 1 -26 2 -26 2 -25 2 -24 3 -24 3 -23 3 -22 4 -21 4 -21 5 -20 5 -19 6 -18 7 -17 7 -17 8 -16 9 -15 10 -14 10 -15 -3zm15 3l-9 7 -6 -10 15 3zm400 -450l2 20 2 0 -20 6 -20 7 -20 8 -20 9 -21 9 -21 10 -21 10 -21 11 -20 12 -20 12 -20 13 -19 13 -19 13 -18 14 -17 14 -16 14 -16 15 -15 15 -14 15 -12 15 -11 15 -10 15 -8 15 -7 16 -6 15 -4 15 -2 15 -1 15 1 15 3 15 5 15 7 15 -18 9 -8 -17 -6 -17 -3 -17 -1 -17 1 -17 3 -17 4 -17 6 -17 8 -17 9 -17 11 -17 12 -16 13 -16 14 -16 15 -16 16 -15 17 -15 18 -15 18 -14 19 -14 20 -13 20 -13 20 -12 21 -12 21 -11 21 -11 21 -10 21 -9 21 -9 21 -8 20 -7 20 -7 2 0zm-2 0l1 0 1 0 -2 0zm241 113l4 20 -2 0 -13 0 -12 -1 -11 -2 -10 -3 -9 -3 -8 -4 -8 -4 -7 -5 -6 -5 -6 -5 -5 -6 -5 -6 -5 -6 -4 -6 -4 -6 -4 -6 -4 -6 -4 -5 -4 -5 -5 -5 -5 -5 -5 -4 -6 -4 -6 -4 -7 -3 -8 -3 -9 -2 -10 -2 -11 -1 -12 0 -13 0 -14 1 -2 -20 15 -1 14 0 13 0 12 1 11 2 10 3 9 3 9 4 8 4 7 5 6 5 6 6 5 6 5 6 5 6 4 6 4 6 4 6 4 6 4 5 4 5 4 5 5 5 5 4 6 4 6 3 7 3 8 3 8 2 9 2 10 1 12 0 -2 0zm4 20l-1 0 -1 0 2 0zm178 -132l7 19 -1 0 -4 1 -4 2 -5 2 -5 3 -5 3 -6 3 -6 4 -6 4 -6 4 -6 4 -6 4 -7 5 -7 5 -7 5 -7 5 -7 5 -7 5 -7 5 -7 5 -6 5 -6 4 -6 4 -6 4 -6 4 -6 4 -6 3 -5 3 -5 3 -5 2 -5 2 -5 2 -5 1 -4 -20 3 -1 3 -1 4 -2 4 -2 5 -2 5 -3 5 -3 6 -3 6 -4 6 -4 6 -4 6 -4 6 -4 6 -5 7 -5 7 -5 7 -5 7 -5 7 -5 7 -5 7 -5 7 -4 6 -4 6 -4 6 -4 6 -4 6 -4 6 -3 6 -3 5 -3 5 -2 5 -2 -1 0zm7 19l0 0 0 0 1 0zm277 -104l-5 19 1 0 -8 -1 -8 0 -8 0 -8 1 -8 1 -9 1 -9 2 -9 2 -9 2 -9 2 -9 3 -9 3 -9 3 -9 3 -9 3 -9 3 -9 4 -9 4 -9 4 -9 4 -9 4 -9 4 -9 4 -9 4 -8 4 -8 4 -8 4 -8 3 -8 3 -7 3 -7 3 -7 3 -7 -19 7 -3 7 -3 7 -3 7 -3 8 -3 8 -4 8 -4 8 -4 9 -4 9 -4 9 -4 9 -4 9 -4 9 -4 9 -4 9 -4 10 -4 10 -3 10 -3 10 -3 10 -3 10 -3 10 -2 10 -2 9 -2 9 -2 9 -1 9 -1 9 -1 9 0 9 0 9 1 1 0zm-1 0l1 0 1 0 -1 0zm1029 192l-13 15 0 0 -26 -22 -26 -20 -27 -18 -27 -16 -27 -14 -28 -12 -28 -10 -29 -9 -29 -7 -30 -6 -30 -5 -30 -4 -31 -3 -31 -2 -32 -1 -32 -1 -32 0 -33 0 -33 0 -33 0 -34 0 -34 0 -34 0 -35 -1 -35 -1 -35 -2 -36 -3 -36 -4 -36 -5 -36 -6 -37 -7 -37 -9 5 -19 36 8 36 7 36 6 36 5 35 4 35 3 35 2 35 1 34 1 34 0 34 0 34 0 33 0 33 0 33 0 33 0 32 1 32 1 32 2 31 3 31 4 31 5 30 6 30 8 30 9 29 11 29 12 29 14 28 16 28 18 27 21 27 23 0 0zm328 1046l-20 -1 0 0 2 -44 1 -43 1 -42 0 -41 -1 -40 -1 -39 -2 -39 -3 -38 -3 -37 -4 -36 -5 -35 -5 -35 -6 -34 -7 -33 -8 -32 -9 -32 -10 -31 -10 -30 -11 -30 -12 -29 -13 -29 -14 -28 -15 -27 -16 -27 -17 -26 -18 -26 -19 -26 -21 -25 -22 -25 -23 -24 -24 -24 -25 -24 13 -15 26 24 24 24 23 25 22 25 21 26 20 26 19 27 18 27 17 28 16 28 15 29 14 29 13 30 12 30 11 31 10 32 9 32 8 33 7 34 6 34 6 35 5 36 4 37 3 37 3 38 2 39 1 40 1 41 0 42 -1 42 -1 43 -2 44 0 0z"/>
    </g>
    <g>
     <path class="fil11 str0" d="M6711 8127c131,5 262,-69 478,-25 -240,85 -449,125 -582,146 -133,22 -108,-61 -205,-58 62,-62 178,-68 309,-63z"/>
     <path class="fil11 str0" d="M6792 7698c184,-190 41,84 875,-343 -161,109 -73,246 -302,270 -128,2 -446,71 -573,73z"/>
     <path class="fil11 str0" d="M6877 7734c27,79 23,83 87,78 -49,-25 -39,-43 24,-99 -58,-17 -73,-4 -110,21z"/>
     <path class="fil11 str0" d="M7031 7703c44,30 54,90 -35,135 43,-29 158,-141 388,-183 -41,-7 -317,51 -353,49z"/>
    </g>
    <path class="fil11 str0" d="M5124 9603c-10,131 -97,253 -78,472 111,-229 141,-435 178,-565 36,-130 -16,-111 -2,-208 -69,54 -87,169 -97,300z"/>
    <path class="fil11 str0" d="M4712 9607c-127,243 -32,253 -467,857 129,-107 253,-45 302,-270 16,-127 149,-461 165,-587z"/>
    <path class="fil11 str0" d="M4719 9735c75,36 80,32 68,95 -20,-51 -39,-43 -101,13 -10,-60 4,-73 33,-107z"/>
    <path class="fil11 str0" d="M4675 9880c25,47 83,64 138,-20 -34,39 -158,141 -225,365 -2,-41 86,-309 88,-346z"/>
    <g>
     <path class="fil11" d="M5220 9268c-6,-64 -198,-47 -289,43 -92,91 -209,239 -207,366 108,15 115,52 107,197 -112,126 -182,249 -250,405 3,360 -96,655 -18,896 132,322 411,469 906,579 564,4 1309,-109 1961,-296 55,-161 105,-327 155,-492 -801,156 -1534,388 -2195,333 -374,-80 -388,-231 -420,-556 19,-172 20,-363 32,-572 10,-173 6,-359 87,-501 -17,-183 30,-381 132,-402z"/>
     <path id="1" class="fil10" d="M4938 9318l-14 -14 0 0 9 -9 10 -8 10 -8 11 -7 11 -7 11 -6 12 -6 12 -5 12 -5 12 -4 12 -4 12 -4 12 -3 12 -3 12 -2 12 -2 12 -1 11 -1 11 0 11 0 10 1 10 1 9 2 9 2 8 3 7 3 7 4 6 5 5 6 4 6 3 7 1 8 -20 2 -1 -4 -1 -3 -2 -3 -3 -3 -4 -3 -5 -3 -6 -3 -6 -2 -7 -2 -8 -1 -9 -1 -9 -1 -10 0 -10 0 -10 1 -11 1 -11 2 -11 2 -11 2 -12 3 -12 3 -12 4 -11 4 -11 5 -11 5 -11 5 -11 6 -10 6 -10 7 -10 7 -9 7 -8 8 0 0zm-213 349l-3 20 -9 -10 0 -13 1 -13 2 -13 2 -13 3 -13 3 -13 4 -13 4 -13 5 -13 5 -13 6 -13 6 -13 7 -13 7 -12 7 -12 8 -12 8 -12 8 -12 8 -12 9 -12 9 -12 9 -11 9 -11 9 -11 9 -11 9 -10 9 -10 9 -10 9 -10 9 -9 9 -9 9 -9 14 14 -9 9 -9 9 -9 9 -9 10 -9 10 -9 10 -9 10 -9 11 -9 11 -9 11 -9 11 -8 11 -8 11 -8 12 -8 12 -8 12 -7 12 -7 12 -7 12 -6 12 -6 12 -6 12 -5 12 -5 12 -4 12 -4 12 -3 12 -3 12 -2 12 -1 12 -1 12 0 11 -9 -10zm-3 20l-8 -1 0 -9 9 10zm116 194l-15 -13 -3 6 1 -13 1 -13 0 -12 0 -11 0 -11 0 -10 0 -10 0 -9 -1 -9 -1 -8 -1 -7 -1 -7 -1 -6 -2 -6 -2 -5 -2 -5 -2 -5 -3 -4 -3 -4 -3 -4 -4 -3 -4 -3 -5 -3 -5 -3 -6 -3 -6 -2 -7 -2 -7 -2 -8 -2 -8 -2 -9 -2 -10 -1 3 -20 10 2 10 2 9 2 9 2 8 2 8 3 7 3 7 3 6 3 6 4 5 4 5 5 5 5 4 5 4 6 3 6 3 6 2 7 2 7 2 7 1 8 1 8 1 9 1 9 0 10 0 10 0 11 0 11 0 12 -1 12 -1 13 -1 13 -3 6zm3 -6l0 3 -2 3 3 -6zm-250 404l-20 0 1 -4 6 -15 6 -14 6 -14 6 -14 7 -14 7 -14 7 -14 7 -13 7 -13 7 -13 7 -13 7 -13 7 -13 7 -13 7 -13 8 -13 8 -12 8 -12 8 -12 8 -12 8 -12 8 -12 9 -12 9 -12 9 -12 9 -12 9 -12 10 -12 10 -12 10 -12 10 -12 10 -12 15 13 -10 12 -10 12 -10 12 -10 12 -9 12 -9 12 -9 12 -9 12 -9 12 -8 12 -8 12 -8 12 -8 12 -8 12 -8 12 -8 12 -7 12 -7 12 -7 13 -7 13 -7 13 -7 13 -7 13 -7 13 -7 13 -7 13 -7 14 -6 14 -6 14 -6 14 -6 14 -6 14 1 -4zm-20 0l0 -2 1 -2 -1 4zm1 892l-18 8 0 -1 -7 -23 -6 -23 -5 -24 -4 -24 -3 -24 -2 -25 -2 -25 -1 -25 0 -26 0 -26 1 -26 1 -27 2 -27 2 -27 2 -27 3 -28 3 -28 3 -28 3 -29 3 -29 3 -29 3 -30 3 -30 3 -31 3 -31 3 -31 2 -32 2 -32 2 -32 1 -33 1 -33 0 -33 20 0 0 34 -1 33 -1 33 -2 33 -2 32 -2 32 -3 31 -3 31 -3 31 -3 30 -3 30 -3 30 -3 29 -3 29 -3 28 -3 28 -3 28 -2 27 -2 27 -2 27 -1 26 -1 26 0 25 0 25 1 25 2 24 2 24 3 24 4 23 5 23 6 23 7 22 0 -1zm-18 8l0 0 0 0 0 1zm915 565l0 20 -2 0 -46 -10 -45 -11 -43 -11 -42 -11 -41 -12 -40 -12 -39 -12 -37 -13 -36 -13 -35 -14 -34 -14 -33 -15 -32 -15 -31 -16 -30 -16 -29 -17 -28 -18 -26 -18 -25 -19 -24 -20 -23 -20 -22 -21 -21 -22 -20 -23 -19 -24 -19 -24 -18 -25 -17 -26 -16 -27 -15 -28 -14 -29 -13 -30 18 -8 13 29 14 28 14 27 15 26 16 25 17 25 18 24 19 23 20 22 21 21 22 21 23 20 24 19 25 18 26 18 27 17 28 17 29 16 30 15 31 15 32 14 34 14 35 13 36 13 37 13 38 12 39 12 41 11 42 11 43 11 44 11 46 10 -2 0zm0 20l-1 0 -1 0 2 0zm1952 -309l19 6 -7 6 -62 17 -62 17 -62 16 -63 16 -63 16 -63 15 -64 15 -64 14 -64 14 -64 13 -64 13 -64 12 -64 12 -64 11 -64 10 -64 10 -63 9 -63 9 -63 8 -62 8 -62 7 -61 6 -61 6 -60 5 -60 5 -59 4 -58 3 -57 3 -56 2 -56 1 -55 1 -54 0 0 -20 53 0 54 -1 55 -1 56 -2 57 -3 58 -3 59 -4 59 -5 60 -5 61 -6 61 -6 62 -7 62 -8 63 -8 63 -9 63 -9 63 -10 64 -10 64 -11 64 -11 64 -12 64 -13 64 -13 64 -14 64 -14 64 -15 63 -15 63 -15 63 -16 62 -16 62 -17 61 -17 -7 6zm19 6l-2 5 -5 1 7 -6zm148 -486l-4 -20 11 13 -5 16 -5 16 -5 16 -5 16 -5 16 -5 16 -5 16 -5 16 -5 16 -5 15 -5 15 -5 15 -5 15 -5 15 -5 15 -5 15 -5 15 -5 15 -5 15 -5 15 -5 15 -5 15 -5 15 -5 15 -5 15 -5 15 -5 15 -5 15 -5 15 -5 15 -5 15 -5 15 -19 -6 5 -15 5 -15 5 -15 5 -15 5 -15 5 -15 5 -15 5 -15 5 -15 5 -15 5 -15 5 -15 5 -15 5 -15 5 -15 5 -15 5 -15 5 -15 5 -15 5 -15 5 -15 5 -15 5 -15 5 -15 5 -16 5 -16 5 -16 5 -16 5 -16 5 -16 5 -16 5 -16 11 13zm-4 -20l16 -3 -5 16 -11 -13zm-2196 352l4 -19 -1 0 62 4 62 3 63 1 63 0 64 -2 64 -3 65 -4 65 -6 65 -7 66 -8 66 -9 67 -10 67 -11 68 -11 68 -12 68 -13 69 -14 69 -14 70 -15 70 -15 70 -15 71 -16 71 -16 72 -16 72 -16 72 -16 73 -16 73 -16 74 -16 74 -16 75 -15 75 -15 4 20 -75 15 -74 15 -74 15 -74 16 -73 16 -73 16 -72 16 -72 16 -72 16 -71 16 -71 16 -70 15 -70 15 -70 15 -69 14 -69 14 -69 13 -68 12 -68 12 -67 11 -67 10 -67 9 -66 8 -66 7 -65 6 -65 4 -65 3 -64 2 -64 0 -63 -1 -63 -3 -63 -4 -1 0zm1 0l-1 0 -1 0 1 0zm-429 -567l20 2 0 -2 3 30 3 29 3 28 3 27 3 26 3 25 4 24 4 23 5 22 5 21 6 20 6 20 7 19 8 18 8 17 9 16 10 16 11 15 12 14 14 14 15 13 16 13 18 12 19 11 21 11 22 10 24 10 26 9 28 9 30 9 32 8 34 8 -4 19 -34 -8 -32 -8 -30 -9 -28 -9 -27 -10 -25 -10 -23 -11 -22 -11 -20 -12 -19 -13 -17 -13 -16 -14 -15 -15 -13 -15 -12 -16 -11 -17 -10 -17 -9 -18 -8 -19 -7 -20 -7 -20 -6 -21 -5 -22 -5 -23 -4 -24 -4 -24 -3 -25 -3 -26 -3 -27 -3 -28 -3 -29 -3 -30 0 -2zm0 2l0 -1 0 -1 0 2zm32 -574l20 1 0 0 -1 20 -1 19 -1 19 -1 19 -1 19 -1 19 -1 19 -1 19 -1 19 -1 19 -1 18 -1 18 -1 18 -1 18 -1 18 -1 18 -1 18 -1 18 -1 18 -1 18 -1 17 -1 17 -1 17 -1 17 -1 17 -1 17 -1 17 -1 17 -1 17 -2 16 -2 16 -2 16 -20 -2 2 -16 2 -16 2 -16 1 -16 1 -17 1 -17 1 -17 1 -17 1 -17 1 -17 1 -17 1 -17 1 -17 1 -18 1 -18 1 -18 1 -18 1 -18 1 -18 1 -18 1 -18 1 -18 1 -19 1 -19 1 -19 1 -19 1 -19 1 -19 1 -19 1 -19 1 -19 1 -20 0 0zm87 -499l20 -2 -1 6 -7 13 -7 13 -6 14 -6 14 -5 14 -5 14 -5 14 -4 15 -4 15 -4 15 -3 15 -3 15 -3 16 -3 16 -2 16 -2 16 -2 16 -2 16 -1 16 -1 16 -1 16 -1 16 -1 16 -1 16 -1 16 -1 16 -1 16 -1 16 -1 16 -1 16 -1 16 -1 16 -20 -1 1 -16 1 -16 1 -16 1 -16 1 -16 1 -16 1 -17 1 -17 1 -17 1 -17 1 -17 1 -17 1 -16 2 -16 2 -16 2 -16 2 -16 2 -16 3 -16 3 -16 3 -16 3 -16 4 -16 4 -15 4 -15 5 -15 5 -15 6 -15 6 -14 7 -14 7 -14 8 -14 -1 6zm20 -2l0 3 -2 3 1 -6zm112 -401l20 -2 -8 11 -8 2 -8 3 -8 4 -8 5 -7 6 -7 7 -7 7 -7 8 -6 9 -6 10 -6 11 -6 11 -5 12 -5 12 -5 13 -4 14 -4 14 -4 14 -3 15 -3 15 -3 16 -2 16 -2 16 -2 16 -1 17 -1 17 0 17 0 17 0 17 1 17 1 17 1 17 -20 2 -1 -17 -1 -17 -1 -17 0 -17 0 -17 0 -17 1 -17 1 -17 2 -17 2 -17 2 -16 3 -16 3 -16 3 -15 4 -15 4 -15 4 -14 5 -14 5 -13 6 -13 6 -12 6 -11 7 -11 7 -10 7 -9 8 -9 8 -8 9 -7 9 -6 10 -5 10 -4 10 -3 -8 11zm20 -2l1 9 -9 2 8 -11z"/>
    </g>
   </g>
  </g>
 </g>
</svg>
