<?xml version="1.0" encoding="utf-8"?>
<!-- Generator: Adobe Illustrator 24.1.0, SVG Export Plug-In . SVG Version: 6.00 Build 0)  -->
<svg version="1.1"
	 id="svg2" xmlns:cc="http://creativecommons.org/ns#" xmlns:dc="http://purl.org/dc/elements/1.1/" xmlns:rdf="http://www.w3.org/1999/02/22-rdf-syntax-ns#" xmlns:svg="http://www.w3.org/2000/svg"
	 xmlns="http://www.w3.org/2000/svg" xmlns:xlink="http://www.w3.org/1999/xlink" x="0px" y="0px" viewBox="0 0 330 440"
	 style="enable-background:new 0 0 330 440;" xml:space="preserve">
<style type="text/css">
	.st0{fill:#D4AF37;}
	.st1{fill:#005BBB;}
	.st2{fill-rule:evenodd;clip-rule:evenodd;fill:#FFD500;stroke:#000000;stroke-miterlimit:2.7524;}
	.st3{fill-rule:evenodd;clip-rule:evenodd;fill:#FFFFFF;}
	.st4{fill-rule:evenodd;clip-rule:evenodd;fill:#D4AF37;stroke:#000000;}
	.st5{fill-rule:evenodd;clip-rule:evenodd;fill:#FFFFFF;stroke:#000000;}
	.st6{fill-rule:evenodd;clip-rule:evenodd;}
	.st7{fill-rule:evenodd;clip-rule:evenodd;fill:#FFFFFF;stroke:#000000;stroke-linejoin:round;}
	.st8{fill-rule:evenodd;clip-rule:evenodd;fill:#A00035;}
	.st9{fill-rule:evenodd;clip-rule:evenodd;fill:#FFD399;stroke:#000000;stroke-width:7.850000e-02;stroke-miterlimit:1.798;}
	.st10{fill-rule:evenodd;clip-rule:evenodd;fill:#FFD500;}
	.st11{fill:#A00035;}
	.st12{fill:#FFFFFF;}
	.st13{fill:#FFD399;stroke:#000000;stroke-width:7.850000e-02;stroke-miterlimit:1.798;}
	.st14{fill:#D4AF37;stroke:#000000;}
	.st15{fill:#FFD500;}
	.st16{fill:#FFFFFF;stroke:#000000;}
	.st17{fill:#FFD500;stroke:#000000;}
	.st18{fill:#96995F;stroke:#000000;stroke-width:0.6881;}
	.st19{fill:#FFD500;stroke:#000000;stroke-width:0.6881;}
	.st20{fill:url(#path4143_1_);}
	.st21{fill-rule:evenodd;clip-rule:evenodd;fill:#FFD500;stroke:#000000;}
</style>
<g>
	<path id="path2839" class="st0" d="M0.7,0.8v326.4c0,23.4,13.7,45.8,36.7,55.9L165,439.2l127.6-56.2c23-10.1,36.6-32.5,36.7-55.9
		V0.8L0.7,0.8z"/>
	<path id="path7710" class="st1" d="M5,5v320c0,23,13.3,43.6,35.7,53.5L165,433.4l124.3-54.9C311.7,368.6,325,348,325,325V5L5,5z"/>
</g>
<g>
	<g id="g4065" transform="matrix(0.68808975,0,0,0.68808975,-4.6038559,-12.085824)">
		<path id="path19-4" class="st2" d="M249,73.3c-29.9-0.2-46.3,22-47,46.1c-0.7,26,12.1,39.8,30.3,44.5c0.6-2.3,0.7-4.8,0.8-8.4
			c-26.9-6.8-15.9-59.3,13.7-59.2c26.1,0.1,41.9,49.2,13.1,59.4c0.1,3.7,0.4,6.3,1.3,8.6c19.6-4.4,32.2-19.2,32.4-44.7
			C293.6,95.9,276.1,73.5,249,73.3L249,73.3z"/>
		<path id="path21" class="st2" d="M248.3,77.2c23.8,0,42.3,19.8,42.3,43.8c0,24-19.2,41.9-43,41.9c-23.8,0-42.3-15.4-42.3-42.4
			C205.3,96.5,224.5,77.2,248.3,77.2z"/>
	</g>
	<path id="path25" class="st3" d="M151.4,107.9c4.6-3.2,5.4-6.1,5.7-11.1c5.1,4.1,11.6,3.4,15.8,0.7c0.5,5.7,2.1,8.2,6.5,10.1
		C178.7,112.7,152.7,113,151.4,107.9z"/>
	<path id="path93" class="st3" d="M231.5,186.8c0-0.8,0-6.1,1.2-6.1c2.9,0.1,1.3,20.4,1.5,23.9c0.2,3.5-0.3,4.5-3,4.5
		c-6,0.1-2.4-17.7-3.7-28c-0.2-1.8,1.5-1.2,1.9-0.9c1.4,1.1,0.9,18.3,1.4,18.4C231.6,198.8,231.6,189.4,231.5,186.8L231.5,186.8z"/>
	<path id="path73" class="st4" d="M198.1,107.4l8.6-10.9c-10.2-24.5-1.4-66.1,26.2-52.8c45.3,24.2,24.8,131.2,26.1,168.4
		c1.3,36.4,4.2,76.1,12.4,104.9c-2.4-1-7.2-0.3-8.2-0.3c0.7,9.3,4.3,18.2,5.7,24.5c-10.5-0.1-19.9-14-24-24.4l-3.7,3.4l-0.6-4.2
		l4.2-3.9c-9-20.4-15.5-33.1-19.7-107.4c8.2-12.2,10.6-26.5,8.2-51.8C231.3,131.2,226.9,106.5,198.1,107.4L198.1,107.4z"/>
	<path id="path65" class="st5" d="M242,170c-1.5,0.2-0.4-10.2-0.8-19.4l-3.1,0.5c0.5,21.2-2.3,34.7,4.1,33.8
		c5.6-0.8,3.9-7.9,4.4-35.2l-3.2,0.6C243,160.9,244.3,169.6,242,170L242,170z"/>
	<path id="path101" class="st6" d="M109.5,148.2c-40,42.3-24.3,15.3-41.4,32.6c-5.1,5.2-1.5,11,4.4,15.6c6.9,5.5,10,0.2,12.7-5
		c3.2-1.7,4.5-3.9,5.3-7.1c5.7-3.4,10.4-5.3,17.4-10.9c-0.2,8.3-4.1,79.7-5.3,88.4c2.4,23.2,9.5,44.4,21.5,66.6l5.8,6
		c0.3,9.6,1,18.5,1.2,21.2c1.6,17.3-17.6,12.5-18,33.8c26.1-2.7,17.8-7,32.4-15.8c11.1-6.7,0.8-10.4,4.4-27.8
		c8,4.1,20.3,4.8,25.7,4.2c0.2,5.7-6.6,13.9,3.4,19.2c6.2,3.3,8.1,18.6,29.2,15.2c0.6-17.2-16.8-11.3-17.5-37.7
		c7.6-1.6,37.3-18.1,54.5-34.3c-10.3-21.9-14.8-33.3-19.8-107.5c9.9-16.6,10.2-31.5,8.8-51.8c-9.6-77.6-59.3-24-60.1-58
		c19.8-7,9-40.7-8.9-40.7c-20.4-0.1-27.7,36-9.3,40.6C155.4,125.4,123.8,79.4,109.5,148.2L109.5,148.2z"/>
	<path id="path57" class="st7" d="M221.7,116.3c2,2.7,3.4,4.5,5.2,7.7c7,0.6,2.1-19.5-2.8-43l-1.5,4c3.3,18.8,5,26.8,2.7,27.3
		c-1.3,0.3-2.4-13.1-4.3-24.2l-2.2,6.8C221.9,113.3,221.7,116.3,221.7,116.3z"/>
	<path id="path71" class="st7" d="M225.7,77.8c6.1,22.2,9.4,35.7,13.8,33c7.9-5-0.1-27.3-10.2-41.7l-1.4,3.1
		c3.3,7.1,10.9,26,8.6,27.2c-1.1,0.6-5.3-14.6-9.5-25L225.7,77.8z"/>
	<path id="path83" class="st5" d="M244.4,230.6c-5.3,0.7-5.9-12.3-6.6-40.5l2.7-0.5c0.5,7.1-0.4,22,1.6,21.8
		c2.3-0.2,1.4-9.3,1.1-22.3l3-0.7C246.6,215.7,249.6,229.9,244.4,230.6L244.4,230.6z"/>
	<path id="path85" class="st5" d="M233,238.3c-1.3,0-1.2-14.9-2-20.9l-2.8,0.4c2.8,35.5,2.5,41.2,6.5,41c5.1-0.3,3.5-5.6,1-41.9
		l-2.8,0.2C233.4,224.3,235,238.3,233,238.3L233,238.3z"/>
	<path id="path89" class="st5" d="M236.1,283.3l4.9,16c2.7-1.4,2.6-4.9-3.8-36.4l-3.1,0.6C236.2,274.1,238.5,282.6,236.1,283.3
		L236.1,283.3z"/>
	<path id="path97" class="st5" d="M230.2,194.5c0.8-1.9,1.8-6,2.8-8.8c1.5,18.9,1.8,26.8-2.2,27.5c-4.4,0.7-3.7-4.5-4.3-10.4
		l1.9-4.3c0.7,1.7,0.3,5.6,1.4,5.1C231.2,202.9,230.5,196.3,230.2,194.5L230.2,194.5z"/>
	<path id="path99" class="st8" d="M130.6,149.7c0,0,0,1.4,1.8,1.6c-0.4,12.7,2,22.1-0.2,28.9c-3.7,11.6-7.2,23.3-12.5,88.9
		c-0.5,5.9,5.7,7.5,7.7,8.6c1.9,16.6,4.1,11.9,4,16.1c-0.1,2.3-2.1-2-1.5,38.6l-5-5.2c-11.5-20.2-18.7-43.9-21-65.1
		c3.1-39,4.2-66.2,5.3-89.7c6.2-3.9,11.7-8.1,16.5-12.2C128.1,155.5,129.6,153.1,130.6,149.7z"/>
	<path id="path105" class="st9" d="M152.3,306c2,13.4-14.5,21.4-21.1,16.1c-0.7-11.9,0.5-22.9,0.5-22.9c11.8-3.1-1,1.9-2.6-21.2
		c7.7,2.4,13.4,2.4,22.5,2.4C154.2,291.9,144,297.6,152.3,306L152.3,306z"/>
	<path id="path107" class="st9" d="M131.2,324.3c0,0,0.3,15.7,0.3,16.6c6.9,5,14.9-0.1,17.1-3.5c0.1-8.7,3.7-15.2,2.9-20.5
		C148.9,321.1,139.4,328.9,131.2,324.3L131.2,324.3z"/>
	<path id="path109" class="st9" d="M148.6,339.4c-4.4,5.4-11.2,6.4-17.1,3.7c0.4,5.4,0.9,11.2,0.9,16.1c4,2.1,12.9-1.7,15-4.8
		C147.5,349,148.7,344.8,148.6,339.4L148.6,339.4z"/>
	<path id="path111" class="st9" d="M147.6,356.6c-3,2.3-5.9,5.6-15.4,4.7c-2.6,11.4-16.3,11.2-17.7,26c21.9-1,18.3-9.5,29.3-14.9
		C152.1,368.4,148.4,364,147.6,356.6z"/>
	<path id="path115" class="st9" d="M189.3,278.3c-5.2,1.5-11.2,2.1-22.4,2c-1.4,15.1,4.8,12.6,3.5,18.2
		c-3.9,16.4,13.6,19.4,19.7,11.1C191.2,303.3,190.8,296.6,189.3,278.3L189.3,278.3z M185.6,294.6c0.6,1.7-4,10.6-7.2,0.7
		C180.1,296.1,184.1,295.4,185.6,294.6z"/>
	<path id="path117" class="st9" d="M170.7,310.7c-0.3,5.6-0.5,8.5,0.3,14.4c1.6,12.8,14.5,11,19.3,5.7l-0.3-19.2
		C188,315.8,175.7,318.4,170.7,310.7z"/>
	<path id="path119" class="st9" d="M176.6,348c-1.3-4.9-2-7.2-2.7-13.9c5.5,3.5,10.2,3.4,16.4-1.2c0.3,5.5-1,15.2-1,15.2
		C185.6,351.3,181.1,350.8,176.6,348z"/>
	<path id="path121" class="st9" d="M189.5,350c2.3,23.6,18.3,20.2,17.3,32.5c-18.4,2.7-20.7-11.4-27-14.8
		c-9.5-5.1-2.8-10.3-3.1-17.6C181.8,353.2,185.6,352.6,189.5,350L189.5,350z"/>
	<path id="path127" class="st3" d="M149.8,115c-1.2,1.1-2.6,1.6-5.5,1.7c0.1,5.7-0.7,13.1-2.2,17.6c0.6,2.8-0.3,4.6-2.1,14.4
		c-0.5,2.4-1.5,2.9-6.3,2.6c0.3,7.5,0.5,16.7,0.6,23.2c22.8,0,13.5,4.5,41.1,4.6c-0.7-4-1.2-9.2-1.4-15c-2.8,0.8-5.5,2.5-9.3,2.5
		c-11.2,0-21.3-8-21.3-19.4c0-11.5,8.8-20.4,20.1-20.4c4,0,7.3,1.3,7.3,1.3C164.9,124.2,158.9,119.5,149.8,115L149.8,115z"/>
	<path id="path129" class="st3" d="M175.8,180.9l1.2,5.2c-23.6,4-18.6-5.5-43.5-5.3l0.8-4.2C153.7,176.6,151.4,180.9,175.8,180.9
		L175.8,180.9z"/>
	<path id="path131" class="st3" d="M133,182.4l-1.5,6.6c6.7-1,14.5,6.8,21.6,12.9c6.7,5.7,24.3,3,27.9-3.9c-1.8-3-3.1-8-3.7-10.1
		C148.8,191.7,162.4,182.8,133,182.4z"/>
	<path id="path133" class="st3" d="M166.9,206.2c-5.7,0.8-9.6-0.7-13.6-2.1c-2.5,18.8-3.1,29.2-4.1,55.1c-0.1,3.2,18.8,2.6,18.7,0
		C167.7,241.1,167.7,223.8,166.9,206.2L166.9,206.2z"/>
	<path id="path135" class="st3" d="M139.7,193.4c0,0-8.3-6.1-9.1-1.3c-3.6,18.6-5.6,34.1-7.9,61.1c-0.5,2.3,10.6,6,10.8,3.6
		C135.9,222.3,139.7,193.4,139.7,193.4L139.7,193.4z"/>
	<path id="path137" class="st3" d="M147.7,265.2c-2.8,1.5-8.8,1.4-12.9-1.1c-0.3,3.9-0.3,6.6-0.5,12c-1.1,2.8,13.2,3.3,13.5,1.7
		C147.8,273.8,147.7,269.6,147.7,265.2L147.7,265.2z"/>
	<path id="path139" class="st3" d="M168.5,206.2c3.4-0.4,8.1-2.2,10.5-4.2c0,0,5.9,39.6,6.8,56.9c0.3,2.6-15.5,3.6-16,0.3
		C169.2,242,168.5,206.2,168.5,206.2L168.5,206.2z"/>
	<path id="path141" class="st3" d="M180.2,200.9l1.3-1.7c2.8,6.4,7.3,11.6,11,14.7c0,0,3.1,25.1,4.9,41.6c0.4,2.1-9.6,5.3-10.1,3.2
		C185.9,241.8,180.2,200.9,180.2,200.9z"/>
	<path id="path143" class="st3" d="M133,263.6c-6.5-0.6-9-3.9-10.7-7.6c-0.6,6-1,10.4-1,14.9c0,2.4,11.4,8,11.4,5.1
		C132.8,270.8,132.8,268.4,133,263.6L133,263.6z"/>
	<path id="path145" class="st3" d="M167.9,265.4c-1.7,3.8-16.7,4.1-18.5-0.5c-0.1,4.3,0,8.3,0.4,12.2c0.2,2.7,18.6,2.3,18.5,0.3
		C168.2,273,168.1,270.4,167.9,265.4L167.9,265.4z"/>
	<path id="path147" class="st3" d="M170,265.7c1.8,2.7,16.8,1.8,16.9-0.8c0.9,4.6,0.8,6,1.5,10.9c1,1.4-12.9,4-17.9,2
		C170,273.5,170.2,270.2,170,265.7z"/>
	<path id="path149" class="st3" d="M188.4,264.1c2.3,1.4,9.5-2.8,9.6-5.5c0.6,3.2,1.4,8,1.6,11.3c-2,2.2-5.4,5.5-9.6,5.7
		C189.4,271.2,189,268.5,188.4,264.1z"/>
	<path id="path151" class="st3" d="M151.9,203c-1.9-1.4-5.6-6.4-10.9-8.9c-2.4,18.9-4.3,40-5.6,63.1c-0.2,2.5,12,4.6,12.1,1.2
		C148.5,235.4,149.7,218.6,151.9,203L151.9,203z"/>
	<g id="g3775" transform="matrix(0.60937788,0,0,0.62637748,16.082678,-8.818002)">
		<path id="path157" class="st3" d="M240.7,236.3c2.9,0,5.7-2.9,5-8c-0.6-4.8-3.3-8.9-5-9.3c-1.9,0.5-4.4,4.7-5,9.3
			C235.2,233.4,237.8,236.3,240.7,236.3z"/>
		<path id="path159" class="st3" d="M228.3,248.6c0-2.9-2.9-5.6-8-4.9c-4.9,0.6-9,3.3-9.4,4.9c0.5,1.9,4.7,4.4,9.4,4.9
			C225.4,254.1,228.3,251.5,228.3,248.6z"/>
		<path id="path161" class="st3" d="M240.7,260.9c-2.9,0-5.6,2.9-5,8c0.6,4.8,3.3,8.9,5,9.3c1.9-0.5,4.4-4.7,5-9.3
			C246.3,263.8,243.6,260.9,240.7,260.9z"/>
		<path id="path163" class="st3" d="M253.1,248.6c-0.1,2.9,2.4,5.6,6.7,4.9l0.9-9.9C260.6,243.7,253.5,241.8,253.1,248.6z"/>
		<path id="path165" class="st3" d="M231.9,239.9c2.1-2,2-6-2.2-9.1c-3.9-3-8.7-4-10.2-3.1c-1,1.7,0.2,6.4,3.1,10.1
			C226,241.8,229.9,241.9,231.9,239.9z"/>
		<path id="path167" class="st3" d="M231.9,257.3c-2.1-2-6-1.9-9.2,2.2c-3,3.9-4,8.7-3.1,10.1c1.7,1,6.5-0.2,10.2-3.1
			C233.8,263.2,234,259.3,231.9,257.3L231.9,257.3z"/>
		<path id="path169" class="st3" d="M250,257.8c-1.7,2.3-1.9,6,2.2,9.1c2.3,1.7,4.9,2.8,6.9,3.2l0.1-10.2
			C259.2,260,254.6,251.7,250,257.8z"/>
		<path id="path171" class="st3" d="M249.5,239.9c2.1,2,6,1.9,9.2-2.2c3-3.9,4-8.7,3.1-10.1c-1.7-1-6.5,0.2-10.2,3.1
			C247.6,233.9,247.4,237.8,249.5,239.9z"/>
		<path id="path173" class="st3" d="M229.4,221.6c2.1-0.9,4.2-1.3,4.8,1.4c0.5,2.5-0.6,5.3-1.7,6c-1.5,0.3-4.1-1-5.5-3
			C225.6,223.6,227.3,222.4,229.4,221.6z"/>
		<path id="path175" class="st3" d="M213.5,259.8c-0.9-2.1-1.3-4.2,1.4-4.7c2.5-0.5,5.4,0.6,6,1.7c0.3,1.5-1,4.1-3.1,5.4
			C215.6,263.6,214.3,261.9,213.5,259.8z"/>
		<path id="path177" class="st3" d="M252.2,276.1c-2.1,0.9-4.2,1.2-4.8-1.4c-0.5-2.5,0.6-5.3,1.7-6c1.5-0.3,4.1,1,5.5,3
			C256,274.1,254.3,275.3,252.2,276.1z"/>
		<path id="path181" class="st3" d="M213.5,237.4c0.9-2.1,2.1-3.9,4.4-2.4c2.2,1.4,3.4,4.2,3.1,5.4c-0.8,1.3-3.6,2.2-6,1.7
			C212.2,241.5,212.6,239.5,213.5,237.4z"/>
		<path id="path183" class="st3" d="M229.8,275.6c-2.1-0.9-3.9-2.1-2.4-4.4c1.4-2.1,4.2-3.3,5.5-3c1.3,0.8,2.2,3.6,1.7,6
			C234,276.9,231.9,276.5,229.8,275.6L229.8,275.6z"/>
		<path id="path187" class="st3" d="M252,221.6c2.1,0.9,3.9,2.1,2.4,4.4c-1.4,2.1-4.2,3.3-5.5,3c-1.3-0.8-2.2-3.6-1.7-6
			C247.8,220.3,249.9,220.7,252,221.6z"/>
	</g>
	<g id="g3124" transform="matrix(0.68808975,0,0,0.68808975,-7.1268517,-15.29691)">
		<path id="path197" class="st9" d="M116.2,287.7c-6.9,5.1-8.4,1.4-2.8-3.8c5.6-5.1,9-7.1,17.6-6c12.8-12,27.8-25.4,39.6-38.3
			c1.3-1.5,1.5-4.7,1.9-5.8c0.9,1.4,11.2,4.3,12.5,1.8c0.2,2.9,11.1,4.6,12.7,3.7c-1.7,5.5-3.2,8.2-6.1,13.4
			c-15.2,12.3-44.3,33.5-50.5,34.7c-2.9,7.4-5.3,9.6-7.8,9.3C128.5,296.2,123.7,286.7,116.2,287.7L116.2,287.7z"/>
	</g>
	<path id="path213" class="st10" d="M175,163.3c0.4,25.6,9.9,52.7,30.6,54c11.5,0.7,29.9-16.9,28.3-53.3
		c-1.5-34.3-9.5-54.4-29.2-55.6C182.8,107.1,173,139.3,175,163.3L175,163.3z M204.4,115.2c12,0,21.7,21.2,21.7,47.4
		s-9.7,47.4-21.7,47.4c-12,0-21.7-21.2-21.7-47.4S192.4,115.2,204.4,115.2z"/>
	<path id="path29" class="st9" d="M165,64.6c10.4,0,12,8.1,10.9,17.4c-1.1,8.7-4.1,15.4-10.8,15.2c-6-0.2-9.8-6.5-11.2-15.2
		C152.4,72.5,155.1,64.6,165,64.6z"/>
	<path id="path31" class="st6" d="M167.2,76.5c1.4-1.3,2.5-1.8,3.1-2.3c1.9-1.2,3.4-0.3,4,0.2c0.1,0.6-1.6,0.2-2.1,0.3
		C170.4,75,169.3,76,167.2,76.5L167.2,76.5z"/>
	<path id="path33" class="st6" d="M159.9,75.2c1.2,0.6,2.3,1.4,3.8,0.9c-2.1-1.7-6.6-2.9-8.5-1.4C157.7,75.1,157.8,74.6,159.9,75.2z
		"/>
	<path id="path37" d="M168.6,90c-0.8,1.5-4.5,2-6.1,0.1c0.7-1.2,2.1-1.6,3.2-1.2C167,88.6,167.9,89,168.6,90L168.6,90z"/>
	<path id="path43" d="M163.9,77.6C163.9,77.6,163.9,77.6,163.9,77.6C163.9,77.6,163.9,77.6,163.9,77.6z M163.9,77.6
		C163.9,77.6,163.9,77.6,163.9,77.6C163.9,77.6,163.9,77.6,163.9,77.6z M163.9,77.6c-0.1-0.2-0.1-0.5,0-0.7c0.1-0.2,0.3-0.2,0.4-0.1
		c0,0,0,0,0.1,0.1c0.8,1.2,0,4.7-0.3,6l0,0.1c-0.1,0.4-0.1,0.7-0.1,1c0,0.3,0.1,0.5,0.3,0.7c0.1,0.2,0.2,0.4,0.1,0.7
		c-0.1,0.2-0.9-0.7-0.9-1.2v0c0-0.4,0-0.9,0.1-1.4v0l0-0.2v0C163.8,81.5,164.5,78.3,163.9,77.6L163.9,77.6L163.9,77.6L163.9,77.6z"
		/>
	<path id="path241" d="M171.1,79.3L171.1,79.3C171.1,79.3,171.1,79.3,171.1,79.3z M171.1,79.3c-0.3,0-0.6,0-0.9-0.1
		c-0.2,0-0.3-0.1-0.5-0.2c-0.1-0.1-0.3-0.1-0.4-0.2c-0.5-0.3-0.8-0.7-0.9-1.1c0-0.1,0.1-0.2,0.2-0.3c0.1-0.1,0.2-0.2,0.3-0.3
		c0.5-0.5,1.4-0.7,2.3-0.6h0c0.1,0,0.2,0,0.3,0c0.2,0,0.4,0,0.5,0c0.2,0,0.3,0.1,0.5,0.1c0.7,0.2,1.2,0.5,1.5,1
		c0,0.1-0.1,0.1-0.1,0.2c-0.1,0.1-0.2,0.2-0.3,0.3C173,78.7,172.1,79.2,171.1,79.3L171.1,79.3L171.1,79.3z M170,79.7
		c0.3,0.1,0.7,0.2,1.1,0.2h0c1.1-0.1,2.1-0.6,2.8-1.3c0.1-0.1,0.2-0.3,0.3-0.4v0c0.1-0.1,0.2-0.3,0.2-0.4v0l0,0v-0.2
		c-0.3-0.7-1-1.2-1.9-1.5c-0.2,0-0.4-0.1-0.6-0.1c-0.2,0-0.4,0-0.6-0.1c-0.1,0-0.2,0-0.3,0c0,0,0,0,0,0c0,0,0,0,0,0
		c-1.1,0-2,0.2-2.7,0.7c-0.1,0.1-0.3,0.2-0.4,0.4c-0.1,0.1-0.2,0.3-0.3,0.5v0c0,0,0,0,0,0.1l0,0.2c0.1,0.5,0.5,1.1,1.2,1.5
		c0.2,0.1,0.3,0.2,0.5,0.3C169.7,79.6,169.8,79.7,170,79.7L170,79.7z M171.1,75.9C171.1,75.9,171.1,75.9,171.1,75.9L171.1,75.9z
		 M171.2,75.9C171.1,75.9,171.1,75.9,171.2,75.9L171.2,75.9z"/>
	<path id="path243" class="st6" d="M170.9,76.2c-0.9,0-1.5,0.7-1.5,1.6c0,0.9,0.7,1.6,1.5,1.6c0.8,0,1.5-0.7,1.5-1.6
		C172.4,76.9,171.7,76.2,170.9,76.2z"/>
	<path id="path247" d="M159.4,79.3C159.4,79.3,159.4,79.3,159.4,79.3S159.4,79.3,159.4,79.3z M159.4,79.3c0.3,0,0.7,0,1-0.1
		c0.2,0,0.3-0.1,0.5-0.2c0.2-0.1,0.3-0.1,0.4-0.2c0.5-0.3,0.8-0.7,0.9-1c-0.1-0.1-0.1-0.2-0.2-0.3c-0.1-0.1-0.2-0.2-0.3-0.3
		c-0.5-0.4-1.4-0.6-2.4-0.6h0c-0.1,0-0.2,0-0.3,0c-0.2,0-0.4,0-0.6,0c-0.2,0-0.4,0.1-0.5,0.1c-0.7,0.2-1.3,0.5-1.5,1
		c0,0.1,0.1,0.1,0.1,0.2c0.1,0.1,0.2,0.2,0.3,0.3C157.5,78.7,158.4,79.2,159.4,79.3L159.4,79.3L159.4,79.3z M160.5,79.7
		c-0.3,0.1-0.7,0.1-1.1,0.1h0c-1.1-0.1-2.2-0.6-2.8-1.2c-0.1-0.1-0.2-0.3-0.3-0.4h0c-0.1-0.1-0.2-0.3-0.2-0.4v0l0,0l0-0.2
		c0.3-0.7,1-1.2,1.9-1.4h0c0.2,0,0.4-0.1,0.6-0.1c0.2,0,0.4,0,0.6-0.1c0.1,0,0.2,0,0.3,0c0,0,0,0,0,0c0,0,0,0,0,0
		c1.1,0,2.1,0.2,2.7,0.7c0.1,0.1,0.3,0.2,0.4,0.4c0.1,0.1,0.2,0.3,0.3,0.4c0,0,0,0,0,0.1l0,0.2c-0.1,0.5-0.6,1.1-1.2,1.5
		c-0.2,0.1-0.3,0.2-0.5,0.3C160.9,79.6,160.7,79.6,160.5,79.7L160.5,79.7z M159.4,76C159.4,76,159.4,76,159.4,76L159.4,76z
		 M159.4,76C159.4,76,159.4,76,159.4,76L159.4,76z"/>
	<path id="path3103" class="st11" d="M153.1,280.4h12.1c-0.1,18.1,4.3,12.2,4,29.1c-0.5,23.9,3.2,23,6,38.7
		c-8.6,1.1-17.4-0.8-25.6-4.1c-0.5-16.4,7.9-31.8,2.4-41.4C147.6,294.7,154.4,297.4,153.1,280.4L153.1,280.4z"/>
	<path id="path3873" class="st11" d="M190.7,345c9.5-1.8,40.9-21.6,53-33.3c-14.4-33.4-14.8-50-19.1-105.1
		c-11.4,14.5-22.1,13.7-30.8,8.1c0,0,4.2,37.6,7,54c0.7,4.2-10,8.8-10,8.8C191.1,295.6,193.7,286.9,190.7,345L190.7,345z"/>
	<path id="path75" class="st5" d="M203,107.2l8.7-8.4c-17.5-55.5,28.6-78.4,44.8-2c5.5,26.1,0.2,61.5-0.3,105.5
		c-0.4,37.3,5.3,83.1,11.7,110.6l-3.4,0.1c-12.4-63.8-16.2-88.9-14.6-153.4c1.2-47-4-84.3-22.3-95.4c-5.1-3.1-9.2,15.1-11.3,29.2
		c-1.7,11.3,2.2,14.9,3.3,20.7C215.5,110.4,210.9,108,203,107.2L203,107.2z"/>
	<path id="path3104" class="st12" d="M169.7,146.7c0,3.8-2.9,6.8-6.4,6.8c-3.6,0-6.4-3-6.4-6.8l0,0c0-3.8,2.9-6.8,6.4-6.8
		C166.8,139.9,169.7,143,169.7,146.7z"/>
	<path id="path3106" class="st11" d="M149.9,108.9c1.5,1.1,1.7,3.4,0.7,5.3c2.4,1.5,15.8,8,27,17.8c3.6-10.2,8.9-19.2,18-23.3
		c-5-0.1-12.4,1.1-16.1-0.3C178,112.5,151.9,111.6,149.9,108.9z"/>
	<path id="path3876" class="st11" d="M116.7,128.6c4.8-11,11.4-20,23.7-20c-3.6,2-2.2,7.1,2.5,7.9c0.1,5.5-0.5,12.2-1.8,16.3
		c-1.1-1.5-6.5-2.8-8.4-0.4c-0.3-2.4-6.9-3.6-8.9-1C122.8,129,119.7,127.9,116.7,128.6L116.7,128.6z"/>
	<path id="rect3878" class="st12" d="M136.8,133.3l1.2,0.2c1.7,0.3,2.9,2,2.6,3.8l-1.7,9.5c-0.3,1.8-2,2.9-3.7,2.6l-1.2-0.2
		c-1.7-0.3-2.9-2-2.6-3.8l1.7-9.5C133.4,134.1,135,132.9,136.8,133.3z"/>
	<path id="rect3878-1" class="st12" d="M127.8,132.1l1.3,0.3c1.7,0.4,2.8,2.1,2.4,3.8l-2.1,8.8c-0.4,1.7-2.1,2.8-3.9,2.5l-1.3-0.3
		c-1.7-0.4-2.8-2.1-2.4-3.8l2.1-8.8C124.3,132.9,126.1,131.8,127.8,132.1z"/>
	<path id="rect3878-1-7" class="st12" d="M119.2,130.4l0.8,0.2c1.7,0.4,2.7,2.2,2.3,3.9l-2.3,8.8c-0.4,1.7-2.2,2.8-3.9,2.3l-0.8-0.2
		c-1.7-0.4-2.7-2.2-2.3-3.9l2.3-8.8C115.7,131,117.4,129.9,119.2,130.4z"/>
	<path id="path3916" class="st13" d="M74.6,184.1c0.1,1-1.3,3-3,4.5c-1.8,1.4-3.3,1.8-3.4,0.8l0,0c-0.1-1,1.3-3,3-4.5
		C72.9,183.4,74.5,183,74.6,184.1z"/>
	<path id="path3916-4" class="st13" d="M77.9,185.7c0.2,1.1-1.4,3.6-3.6,5.5c-2.2,2-4.1,2.7-4.3,1.6c0,0,0,0,0,0
		c-0.2-1.1,1.4-3.6,3.6-5.5C75.8,185.3,77.7,184.6,77.9,185.7C77.9,185.7,77.9,185.7,77.9,185.7z"/>
	<path id="path3916-0" class="st13" d="M79.9,189.2c0.1,1.1-1.2,3.2-3.1,4.8c-1.8,1.6-3.4,2-3.6,0.9l0,0c-0.1-1.1,1.2-3.2,3.1-4.8
		C78.2,188.6,79.8,188.1,79.9,189.2z"/>
	<path id="path3916-9" class="st13" d="M83.2,191.3c0.1,1-1.2,3-3,4.5c-1.8,1.5-3.3,1.9-3.5,1l0,0c-0.1-1,1.2-3,3-4.5
		S83.1,190.4,83.2,191.3z"/>
	<path id="path3976" class="st14" d="M128.7,99l7,8.4c-8.4,2.2-18.7,6.2-26.2,40.8c-7.1,7.6-13.1,13.5-19.7,19.5
		c-4.9,4-7.6,6.9-13.5,6.4c-6.5,4.5-11.7,8.6-10.5,13.5l-4.7,1.8l-6.6-11.3l6.7-5c-4.8-3.7-7.5-11.9-7.7-18.1
		c-9.6-9.5-11.7-14.5-13.3-27.7c-8.5-6.8-13.1-21.6-13.3-39.6c11.6,8.3,20.8,19,23.1,33.2c8,6.9,12.5,11.8,14.5,27.3
		c5.7,3.9,7.3,8.8,8.5,16.7l1.9-1.4C51.2,23.7,149,8.3,128.7,99z"/>
	<path id="path67" class="st7" d="M102,127.5c-0.8,10.1-0.5,28.9-0.5,28.9c3.3-3.5,5.5-5.4,7.8-8.1c0.4-1.7,0.8-3.4,1.3-5.8
		c-0.2-5.1-0.1-10.3-0.5-14l-2.8-0.4c-0.4,7.6,1.1,16.7-1.2,15.9c-1.8-0.6-1.3-16.2-1.3-16.2S102.9,127.5,102,127.5L102,127.5z"/>
	<path id="path55" class="st7" d="M95.9,110.5c4.8,0.6,6.2-8.9,12.7-32.6l-1.8-3.8c-7,17.3-8.2,27.1-9.7,23.7
		c-1.2-2.9,5.7-18.6,7.7-26.5l-1.7-3.2C97,75.2,84.6,109.2,95.9,110.5z"/>
	<path id="path53" class="st7" d="M107.5,124.2c5,1.5,9.7-19,9.7-28.5l-2.8-7.4c-1.4,13.6-3,24.4-4.9,23.6c-2.5-1,1.9-12.5,3.1-26.7
		l-1.7-3.8C103.9,113,98.6,121.6,107.5,124.2L107.5,124.2z"/>
	<g id="g3876" transform="matrix(0.68808975,0,0,0.68808975,-4.7532012,-12.200666)">
		<path id="path193" class="st2" d="M96.4,290l-7.2-12.3l32.7-23.4l6.3,10.8c-6.4,5.2-5.3,3.6-11.2,2.6c-3.2,2.4-18.3,10.3-17,21
			L96.4,290z"/>
	</g>
	<path id="path3104-4" class="st15" d="M150,111.8c0,2.1-2.3,3.8-5.1,3.8s-5.1-1.7-5.1-3.8c0,0,0,0,0,0c0-2.1,2.3-3.8,5.1-3.8
		C147.7,108,150,109.7,150,111.8C150,111.8,150,111.8,150,111.8z"/>
	<path id="path3978" class="st16" d="M131.7,108.4l-7.9-7.1c16.4-81.1-63.4-72.1-45.6,59.4l0.9-0.6l5.9,10.3
		C82.2,94.7,95.8,65.5,106.3,63.8c4.5-0.8,12.6,26.7,13,31.2c1.5,16.6-6,21.5-5.7,37.5C117.1,122.5,120.3,114,131.7,108.4
		L131.7,108.4z"/>
	<path id="path51" class="st7" d="M90.5,112c-2,22.7-4,31.7,2.4,32.5c5.8,0.8,4.5-4,6-30l-2.8-1c-1.5,12.9-1.4,19.1-3.5,18.4
		c-1.6-0.5,0.6-12.5,0.7-19L90.5,112z"/>
	<path id="path67-1" class="st7" d="M88.1,146.9c-0.3,6.5-0.7,13.8-0.3,22.3c4.9-4.2,6.5-5.8,10.4-9.6c0-4.6,0-6.8-0.5-11.5
		l-3.2-0.3c-0.2,4.3,0.9,15.3-1.5,15.9c-1.8,0.4-1.3-4.9-1.7-16.4L88.1,146.9z"/>
	<path id="path3124" class="st14" d="M77.1,198.8c2.1-0.1,3.9,0.6,8.2-7.3c3-1.7,4.6-4,5.3-7.3c5.7-3.5,8.8-4.4,17.5-11.1
		c-2.4,47.8-4.4,80.8-5.3,88.4c1,13.9,5.6,28.7,5.6,28.7l-13.7,31.5c-1-1.1-2.1-2.2-3.2-4.1c-5.1,9.6-10.6,19.3-23.9,24.2l3.5-25.9
		c-2.5-0.1-4.3,0.6-6.2,1.2C76.4,272.8,78.5,235.5,77.1,198.8z"/>
	<path id="path69" class="st5" d="M90.7,188.8c-1.5,40.4-3.6,39.6,2,40.1c6.6,0.6,4.1-5.9,6.6-46l-3.1,2.2
		c-1.5,18.6-0.4,22.5-2.3,23.3c-1.7,0.7-0.8-5.1-0.4-21.8L90.7,188.8z"/>
	<path id="path59" class="st5" d="M91.5,251.1c1.5-0.1,1.1-4.8,1.8-17l3,0.1c-1,26.2-1.9,38.1-6.9,37.5c-5.5-0.7-2.5-16.2-0.8-38
		l2.7,0.2C90.2,247.2,89.8,251.2,91.5,251.1z"/>
	<path id="path63" class="st5" d="M99.3,293.1c1.5-1.1,4-18.2,4-18.2l1.6,7.5c-3.4,18.2-8.2,32.6-11.6,29.8
		c-2.2-1.8,1.4-13.3,6.2-50.6l2.3,1.2C101.7,272,96.3,295.4,99.3,293.1z"/>
	<path id="path61" class="st5" d="M82.4,308.6c1.7,1,5.4-17.4,7.9-31.7l2.6,0.4c-2,17.5-6.8,43.9-15.3,53.8
		c-5.5,6.3-1-26.7,7.2-54.9l2.9,0.4C83.8,296.9,80.5,307.5,82.4,308.6L82.4,308.6z"/>
	<path id="path3894" class="st16" d="M80.3,204.1c1.8,1.3,3.7,2.1,5.1,1.8c-2.9,37.9-2.9,68.9-13.4,106.9l-3.8,0.3
		C76.4,280.3,79.8,247.2,80.3,204.1z"/>
	<path id="path3109" class="st16" d="M103.4,238.3c-2.1-0.3-1.4-2.6-0.9-17.6l-2-0.7c-1.8,33.4-1.8,38,1.2,38.5
		C102.2,258.5,103.2,242.3,103.4,238.3z"/>
	<path id="path3109-1" class="st16" d="M105.5,199.2c-2.1,0-1.2-7.7-0.8-20l-2.3,1.6c-1.3,29.8-2.5,35.1,1.5,35.4
		C104.9,216.3,104.7,213.9,105.5,199.2z"/>
	<path id="path3897" class="st17" d="M79.2,200.8c6.5-3.4,4.4-4.9,7.3-7.4C87.6,202.7,87.7,208,79.2,200.8z"/>
	<path id="path51-1" class="st5" d="M239.8,115l-3.5,1.3c0.4,17.2,0.4,29.8,5.8,29.5c6-0.4,4.8-3.8,3-32.4l-2.9,0.8
		c0.2,6.9,1.2,17.8-0.8,17.6C240.2,131.7,240.2,121.9,239.8,115z"/>
	<path id="path3932" class="st18" d="M198.4,118.1c-6.1,3.4-13.2,17.2-14.5,36.1l15.9,1.6L198.4,118.1z"/>
	<path id="path3932-0" class="st18" d="M210.3,117.7l-1.7,38.1l16.3-1.5C223.4,134.8,217.2,123.2,210.3,117.7z"/>
	<path id="rect3934" class="st18" d="M208.6,164.1l1.4,43.3c8.6-5.6,14.9-21.4,15.2-41.9L208.6,164.1z"/>
	<path id="path3932-0-8" class="st18" d="M183.5,165.6c1,20.5,6.4,35,14.6,41.2l1.7-42.7L183.5,165.6z"/>
	<path id="path4041" class="st19" d="M183.8,155.1l16.7,1.4l-1.3-38.9c2.7-2.3,7.1-2.2,10.3-0.3l-1.5,39.2l17.2-1.4
		c0.1,2.7,0.2,7.2,0,9.3l-17.3-1.1l1.3,44.3c-3.5,2.6-8.5,1.1-10.5-0.5l1.7-43.9l-17,1.4C183.6,155.7,183.7,156.7,183.8,155.1z"/>
	<path id="path4141" class="st13" d="M157,94.8c5.1,5.8,12,5.6,15.9,0c0.4,6.2,1.1,9.7,5.8,13c-4.8,2.8-24.6,2.4-29.5,0
		C154.1,107.1,156.7,104.1,157,94.8z"/>
	<linearGradient id="path4143_1_" gradientUnits="userSpaceOnUse" x1="165.014" y1="57.3033" x2="165.014" y2="76.8534">
		<stop  offset="0" style="stop-color:#66460F"/>
		<stop  offset="1" style="stop-color:#000000"/>
	</linearGradient>
	<path id="path4143" class="st20" d="M148,76.9c2.2-26.5,31.6-25.4,34.1-0.7l-3.9,0.1c1-18.9-27.8-19.1-26.2,0.5L148,76.9z"/>
	<path id="path4145" class="st12" d="M123.9,256.5c2.2,3.1,4.5,5,9.1,5.3c0.4-0.8,0.2-1.3,0-2.1
		C127.6,259.6,126.3,257.7,123.9,256.5z"/>
	<path id="path4145-1" class="st12" d="M197.3,258c-2.2,3.1-4.2,4.5-8.9,4.8c-0.2-0.5-0.4-1.2-0.4-2
		C193.5,260.7,194.9,259.3,197.3,258z"/>
	<path id="path4165" class="st12" d="M135.2,259.7c3.3,2.3,8,3.4,12.3,1.4c0,0.9,0.1,1.4-0.1,2.3c-3.1,1.6-9.1,1.1-12.3-1.4
		C134.9,260.9,135.1,260.3,135.2,259.7z"/>
	<path id="path4165-7" class="st12" d="M149.4,261.5c3.3,3.1,13.4,2.3,18.4,0.2c0.2,0.8,0.3,1.5,0,2.3c-4.6,3.4-14.9,3.6-18.4-0.6
		C149.1,262.1,149.3,262.1,149.4,261.5L149.4,261.5z"/>
	<path id="path4165-1" class="st12" d="M170.1,261.9c4.8,2,12.4,1.6,15.9-0.8c0.3,0.6,0.8,1,0.4,2.4c-3.8,2.5-10.7,3.5-16.1,0.7
		C170,263.6,169.9,262.8,170.1,261.9z"/>
	<path id="path243-1" class="st6" d="M159.5,76.3c-0.9,0-1.5,0.7-1.5,1.6c0,0.9,0.7,1.6,1.5,1.6c0.8,0,1.5-0.7,1.5-1.6
		C161,77,160.3,76.3,159.5,76.3z"/>
	<path id="path59-1" class="st5" d="M245.5,251.7c-1.5-0.1-1.1-4.8-1.8-17l-3,0.1c1,26.2,1.7,37.1,6.7,36.5c5.5-0.7,2.7-15.3,1-37.1
		l-2.7,0.2C246.7,247.8,247.2,251.8,245.5,251.7L245.5,251.7z"/>
	<path id="path61-6" class="st5" d="M253.7,307.5c-1.7,1-5.4-17.4-7.9-31.7l-2.6,0.4c2,17.5,6.8,43.9,15.3,53.8
		c5.5,6.3,1-26.7-7.2-54.9l-2.9,0.4C252.4,295.8,255.7,306.3,253.7,307.5L253.7,307.5z"/>
	<path id="path67-8" class="st7" d="M233.4,127.9c0.8,10.1,0.5,28.9,0.5,28.9c-0.2-3.4-1.7-16.7-3.4-23.1c0-2.7-0.1-5.4-0.1-5.4
		S232.6,127.9,233.4,127.9L233.4,127.9z"/>
	<path id="path2971-8-2" class="st21" d="M39.9,103c10.5,9.4,7.7,31.9,11.4,21.7c16.7,13.5,8,35.9,14,26.4c3.7,3.3,5.9,9.5,6.1,15.2
		l-8,5.7c-5.9-4.1-7.9-15.7-8.7-24.1c-0.2,7.5-12.2-3.4-12.8-25.2c-4.9,1.5-9.2-9.4-9.8-13.3c8,6.1-4.3-6.2-3.2-18.3
		C28.8,91.2,36.7,100.1,39.9,103L39.9,103z"/>
	<path d="M167.2,85.4"/>
</g>
</svg>
